<svg xmlns="http://www.w3.org/2000/svg" xmlns:xlink="http://www.w3.org/1999/xlink" width="526.292" height="352.988" viewBox="0 0 526.292 352.988">
  <defs>
    <linearGradient id="linear-gradient" x1="0.448" y1="0.983" x2="0.768" y2="0.192" gradientUnits="objectBoundingBox">
      <stop offset="0" stop-color="#0f847e"/>
      <stop offset="1" stop-color="#159b91"/>
    </linearGradient>
    <linearGradient id="linear-gradient-2" x1="0.32" y1="2.684" x2="0.493" y2="0.519" xlink:href="#linear-gradient"/>
  </defs>
  <g id="Grupo_22392" data-name="Grupo 22392" transform="translate(-1125.708 -13.896)">
    <path id="Trazado_38710" data-name="Trazado 38710" d="M-232.27-3342.933q.672-2.4,1.454-4.787C-207.807-3418-116.5-3427.651-81.091-3489.313c40.347-70.255,138.593-99.614,213.851-57.607a145.744,145.744,0,0,1,65.222,76.5c11.448,31.219-4.951,77.377,21.911,101.167,19.35,17.136,42.054,27.024,56.655,49.171,10.574,16.038,15.925,35.569,11.767,53.913-10.075,44.458-55.171,42.473-93.9,37.54a1037.751,1037.751,0,0,0-189.634-6.607c-59.69,3.384-122.026,23.354-180.386,3.875C-226.8-3248.451-245.366-3296.213-232.27-3342.933Z" transform="translate(1362.032 3580.221)" fill="#fff" opacity="0.16"/>
    <g id="Grupo_22391" data-name="Grupo 22391" transform="translate(2434.212 -6181.402)">
      <g id="Grupo_22363" data-name="Grupo 22363" transform="translate(-1262.751 6195.299)">
        <g id="Grupo_22354" data-name="Grupo 22354" transform="translate(61.159 70.185)">
          <path id="Trazado_54953" data-name="Trazado 54953" d="M-1101.2,6411.14c-6.9,5.021-2.022,15.958,3.831,24.87,6.515,9.919,9.2,14.111,29.182,26.473,4.229,2.617,10.522-3.58,12.112-11.915a49.872,49.872,0,0,1-25.153-24.987C-1089.428,6407.468-1098.826,6409.41-1101.2,6411.14Z" transform="translate(1104.584 -6397.21)" fill="#132c59"/>
          <g id="Grupo_22353" data-name="Grupo 22353" transform="translate(29.677)">
            <path id="Trazado_54954" data-name="Trazado 54954" d="M-978.483,6376.808c.255,3.751,3.346,7.605,7.3,7.605a10.487,10.487,0,0,0,1.617-.125c-1.393,3.523-3.479,7.808-4.932,7.223,0,0-3.887-5.9-4.1-10.753A22.415,22.415,0,0,1-978.483,6376.808Z" transform="translate(997.657 -6376.808)" fill="#132c59"/>
            <path id="Trazado_54955" data-name="Trazado 54955" d="M-1027.835,6450.479s15.02-26.1,20.978-44.423l4.712,2.4s-.334,28.131-10.52,49.794C-1015.806,6464.93-1024.976,6460.069-1027.835,6450.479Z" transform="translate(1027.835 -6394.747)" fill="#132c59"/>
          </g>
        </g>
        <path id="Trazado_54956" data-name="Trazado 54956" d="M-1187.984,7068.085s-.8,8.287-.716,11.246h19.769v-.393a1.62,1.62,0,0,0-1.318-1.634c-3.484-.554-9.941-2.117-12.645-11.08Z" transform="translate(1217.337 -6729.461)" fill="#351710"/>
        <path id="Trazado_54957" data-name="Trazado 54957" d="M-1060.783,7067.74s-.8,8.287-.716,11.246h19.769v-.394a1.622,1.622,0,0,0-1.318-1.634c-3.483-.554-9.941-2.116-12.645-11.079Z" transform="translate(1139.321 -6729.25)" fill="#351710"/>
        <g id="Grupo_22355" data-name="Grupo 22355" transform="translate(52.412 189.078)">
          <path id="Trazado_54958" data-name="Trazado 54958" d="M-1091.232,6684.285s1.84,48.515.7,84.318c-5.258,6.319-11.109,9.011-18.252,3.809,0,0-8.516-29.308-13.252-39.712s-8.173-34.416-1.293-43.049Z" transform="translate(1127.206 -6684.285)" fill="#3d5daa"/>
          <path id="Trazado_54959" data-name="Trazado 54959" d="M-1061.951,6896.74s-.817,45.39-3.5,66.107l-7.777,2.794c-2.176-22.9-9.134-46.062-6.975-65.093C-1075.193,6891.758-1068.987,6891.348-1061.951,6896.74Z" transform="translate(1098.63 -6812.422)" fill="#3d5daa"/>
        </g>
        <g id="Grupo_22356" data-name="Grupo 22356" transform="translate(28.631 192.866)">
          <path id="Trazado_54960" data-name="Trazado 54960" d="M-1127.362,6697.451s-10.472,47.393-20.606,81.7c-6.668,4.708-12.993,5.75-18.571-1.184,0,0-.433-32.3-1.262-43.779-1.448-20.036-.7-33.6,8.122-40.108Z" transform="translate(1176.241 -6694.081)" fill="#4670b6"/>
          <path id="Trazado_54961" data-name="Trazado 54961" d="M-1160.433,6904.611s-12.246,43.662-20.064,62.976l-8.209.626c3.681-22.713,2.816-46.966,9.7-64.787C-1171.95,6896.263-1165.859,6897.522-1160.433,6904.611Z" transform="translate(1188.706 -6819.54)" fill="#4670b6"/>
        </g>
        <path id="Trazado_54962" data-name="Trazado 54962" d="M-1142.279,6407.141c10.723-.846,21.644,12.874,24.315,44.432,2.1,24.833,5.806,72.579,5.806,72.579s-34.21,10.171-54.1,3.644c0,0,3.51-62.065,5.116-83.47S-1160.653,6408.589-1142.279,6407.141Z" transform="translate(1203.569 -6325.205)" fill="#0f3384"/>
        <path id="Trazado_54963" data-name="Trazado 54963" d="M-1128.3,6369.395s2.934,11.148.847,17.159c0,0,.788,1.968,5.734,1.63s5.585-2.277,6.109-3.154c0,0-2.064-3.017-2.4-10.067S-1128.3,6369.395-1128.3,6369.395Z" transform="translate(1180.287 -6301.997)" fill="#f8a163"/>
        <path id="Trazado_54964" data-name="Trazado 54964" d="M-1135.893,6303.1c4.214,6.762,13.441,24.045,6.157,29.932-4.993,4.036-18.78-1.651-22.3-6.945-3.564-5.368-11.944-11.993-.287-21.827C-1142.944,6296.35-1138.208,6299.387-1135.893,6303.1Z" transform="translate(1198.684 -6259.082)" fill="#fab683"/>
        <path id="Trazado_54965" data-name="Trazado 54965" d="M-1165.064,6311.637c-4.291-1.553-9.347-4.209-7.771-9.8.818-2.9,3.425-5.043,4.208-7.953a41.364,41.364,0,0,0,.525-4.482c.638-4.117,3.688-7.435,6.935-10.045a17.8,17.8,0,0,1,5.2-3.128,17.074,17.074,0,0,1,8.5-.283A10.237,10.237,0,0,1-1144.1,6277c2.034,1.164,4.533,3.4,5.118,8.748.86,7.855-1.605,10.459-3.347,12.06.748-2.429,1.09-4.792-.456-6.977a5.956,5.956,0,0,0-5.093-2.138,15.225,15.225,0,0,0-12,6.417c-2.025,3.152-1.594,6.392,2.613,8.993,3.054,1.881,2.883,3.61,2.563,4.418a1.777,1.777,0,0,1-.263.477,3.065,3.065,0,0,0-.45-.625,5.21,5.21,0,0,0-2.509-1.37,5.214,5.214,0,0,0-2.617-.073,1.613,1.613,0,0,0-.6.3c-1.009.905-.356,2.568,1.91,4.55s2.871,1.064,5.44,3.4a2.8,2.8,0,0,1,.764,1.073c.854,2.188-1.69,4.691-1.69,4.691-.428-2.754-.663-2.574-1.631-3.838C-1158.5,6314.315-1161.766,6312.831-1165.064,6311.637Z" transform="translate(1207.784 -6244.521)" fill="#0e2571"/>
        <g id="Grupo_22359" data-name="Grupo 22359" transform="translate(0 87.252)">
          <path id="Trazado_54966" data-name="Trazado 54966" d="M-1180.281,6729.715c-.991-1.372-1.853-3.464-2.8-4.665-.757-.958-1.356-1.8-2.408-1.87s-2.71.875-2.272,2.027a3,3,0,0,0,2.555,1.729c.693-.038,1.8,1.365,2.136,1.892C-1181.89,6730.7-1179.815,6730.36-1180.281,6729.715Z" transform="translate(1216.802 -6606.312)" fill="#f8a163"/>
          <g id="Grupo_22357" data-name="Grupo 22357" transform="translate(0 112.805)">
            <rect id="Rectángulo_8123" data-name="Rectángulo 8123" width="43.784" height="30.042" transform="matrix(-0.942, -0.334, 0.334, -0.942, 41.262, 42.957)" fill="#132c59"/>
            <rect id="Rectángulo_8124" data-name="Rectángulo 8124" width="27.485" height="41.227" transform="translate(49.678 15.422) rotate(109.541)" fill="#fff"/>
            <rect id="Rectángulo_8125" data-name="Rectángulo 8125" width="3.911" height="13.345" transform="matrix(-0.942, -0.334, 0.334, -0.942, 44.931, 35.4)" fill="#80d9ff"/>
          </g>
          <path id="Trazado_54967" data-name="Trazado 54967" d="M-1196.639,6708.807s4.543,5.414,5.319,10.207.124,6.627-.686,6.532c-1.07-.125-.549-4.152-1.536-4.393s-.874,6.758-2.506,6.242c-1.261-.4.566-5.008-.59-5.16s-.691,4.8-2.151,4.342.426-4.863-.466-5.026-1.208,3.188-2.069,3.017c-.5-.1-.575-3.236.364-7.014S-1198.292,6708.355-1196.639,6708.807Z" transform="translate(1225.299 -6597.482)" fill="#ffb884"/>
          <g id="Grupo_22358" data-name="Grupo 22358" transform="translate(23.113)">
            <path id="Trazado_54968" data-name="Trazado 54968" d="M-1169.6,6422.159c-7.369-4.512-15.069,4.172-19.884,15.957-4.522,11.066-8.592,15.22-12.234,44.244-.708,5.644,2.673,7.351,13.26,6.263,0,0,8.3-20.912,17.065-40.444C-1163.362,6430.277-1167.06,6423.714-1169.6,6422.159Z" transform="translate(1202.26 -6420.946)" fill="#2356af"/>
            <path id="Trazado_54969" data-name="Trazado 54969" d="M-1188.439,6578.408s-6.219,28.7-6.555,47.961l-5.076.327a249.6,249.6,0,0,1-2.451-52.088C-1202.067,6567.888-1193.979,6570.073-1188.439,6578.408Z" transform="translate(1202.977 -6512.758)" fill="#2356af"/>
          </g>
        </g>
        <g id="Grupo_22362" data-name="Grupo 22362" transform="translate(71.66)">
          <g id="Grupo_22360" data-name="Grupo 22360" transform="translate(23.534 55.784)">
            <path id="Trazado_54970" data-name="Trazado 54970" d="M-1013.56,6356.335l18.33-11,1.565-5.769-22.9,7.143Z" transform="translate(1016.563 -6339.566)" fill="#77a6b7"/>
            <path id="Trazado_54971" data-name="Trazado 54971" d="M-988.867,6376.6l9.187-.635-17.387-18.6-9.187.636Z" transform="translate(1010.24 -6350.483)" fill="#77a6b7"/>
          </g>
          <g id="Grupo_22361" data-name="Grupo 22361">
            <path id="Trazado_54972" data-name="Trazado 54972" d="M-918.751,6275.463l5.751-2.271a5.819,5.819,0,0,0,3.276-7.55h0a5.82,5.82,0,0,0-7.55-3.275l-5.751,2.271a5.819,5.819,0,0,0-3.276,7.55h0A5.82,5.82,0,0,0-918.751,6275.463Z" transform="translate(984.988 -6236.184)" fill="#4670b6"/>
            <path id="Trazado_54973" data-name="Trazado 54973" d="M-1027.14,6258.646l-5.009-12.686-5.01-12.686s40.662-14.883,41.952-37.976l12.323,31.208,12.323,31.208C-987.279,6241.733-1027.14,6258.646-1027.14,6258.646Z" transform="translate(1052.729 -6195.299)" fill="#a8d0e2"/>
            <path id="Trazado_54974" data-name="Trazado 54974" d="M-1043.267,6309.921l-10.92-27.655-13.828,5.46a14.867,14.867,0,0,0-8.367,19.288h0a14.867,14.867,0,0,0,19.288,8.367Z" transform="translate(1077.426 -6248.638)" fill="#4463aa"/>
          </g>
        </g>
        <path id="Trazado_54975" data-name="Trazado 54975" d="M-973.161,6377.628a4.5,4.5,0,0,1,5.732-1.183,10.447,10.447,0,0,1,3.142,3.115,3.319,3.319,0,0,1,.331,2.987,4.565,4.565,0,0,1-1.895,2.43,2.22,2.22,0,0,1-1.836-.106,10.6,10.6,0,0,1-2.773-1.525,15.685,15.685,0,0,1-2.106-1.941,4.022,4.022,0,0,1-1.119-2.417A1.946,1.946,0,0,1-973.161,6377.628Z" transform="translate(1085.459 -6306.036)" fill="#ffb884"/>
      </g>
      <g id="Grupo_22367" data-name="Grupo 22367" transform="translate(-1031.547 6261.632)">
        <path id="Trazado_54976" data-name="Trazado 54976" d="M-169.723,6640.028s12.483-16.644,16.5-34.722a24.273,24.273,0,0,0,10.474-24.392,46.82,46.82,0,0,1,4.591-28.789s-39.9,15.122-19.242,53.18c0,0,3.058,8.286-14.762,33.18Z" transform="translate(362.66 -6480.484)" fill="#149980"/>
        <g id="Grupo_22365" data-name="Grupo 22365" transform="translate(4.783 11.645)">
          <path id="Trazado_54977" data-name="Trazado 54977" d="M-464,6450.316a99.8,99.8,0,0,1,10.223,30.232,100.014,100.014,0,0,1-51.98,104.861,99.7,99.7,0,0,1-81.113,5.436,99.6,99.6,0,0,1-38.709-25.656,100.237,100.237,0,0,1-15.278-21.534,99.99,99.99,0,0,1,41.765-135.1,99.87,99.87,0,0,1,96.762,1.89A99.415,99.415,0,0,1-464,6450.316Z" transform="translate(652.441 -6396.972)" fill="#15b8b5"/>
          <g id="Grupo_22364" data-name="Grupo 22364" transform="translate(16.411 0.335)">
            <path id="Trazado_54978" data-name="Trazado 54978" d="M-348.593,6881.388a19.087,19.087,0,0,0-2.943.736c-.788-.057-1.407-.468-1.225.174s.447.787-.056.89-.93.1-.278.4,1.148-.072,1.7-.454,1.421-1.578.77-.585-1.5,1.459-.207.905.576-.665,1.767-.864,1.519-.034,1.609-.26-.482-.387-.622-.731S-346.525,6881.14-348.593,6881.388Z" transform="translate(452.64 -6694.327)" fill="#077773"/>
            <path id="Trazado_54979" data-name="Trazado 54979" d="M-494.827,6576.069c.437.069,1.543-.29,5.2-.748s2.01-.438,1.55-.889-1.224-.251-2-.779-.273-.629-.9-.54a10.249,10.249,0,0,1-2.465-.621c-1.007-.222-.713.131-1.868-.707s-.234-.361-2.423-.323-1.617-.438-1.617-.438l-2.739-.188-2.523.692s-2.4.676-2.719,1.238a1.818,1.818,0,0,1-1.187,1.079c-.458.188-.069.374.512.383s.644.03,1.362-.922.534-.319,1.806-.8.478-.493,1.242-.693,1.4.2.857.455-.568.294.55.438.576.191,1.434.01.7.174,1.5.242.814.37,2.056.1.627-.089.93.536S-495.264,6576-494.827,6576.069Z" transform="translate(547.888 -6503.938)" fill="#077773"/>
            <path id="Trazado_54980" data-name="Trazado 54980" d="M-415.9,6585.415c-.954-.035-.474.044-1.162.108-1.162.108-.862,1.25-.04,1.087s.4-.079,1.38.384.332-.24.761-.437,1.412-.6,1.362-.626-.626-.139-1.275-.366S-414.945,6585.45-415.9,6585.415Z" transform="translate(492.139 -6512.875)" fill="#077773"/>
            <path id="Trazado_54981" data-name="Trazado 54981" d="M-476.279,6560.166c.452-.034.777-.323.586-1.025s-1-1.923-1.47-1.766c-1.036.351-2.167-.238-.642,1.276S-476.731,6560.2-476.279,6560.166Z" transform="translate(529.38 -6495.674)" fill="#077773"/>
            <path id="Trazado_54982" data-name="Trazado 54982" d="M-467.828,6424.06c-.11-.562-.544,0-.544,0l-.281.048C-468.09,6424.313-467.752,6424.448-467.828,6424.06Z" transform="translate(523.312 -6413.765)" fill="#077773"/>
            <path id="Trazado_54983" data-name="Trazado 54983" d="M-472.908,6423.805c-.838-.191-.809.53-1.254.594l.561-.08,1.565-.255A7.785,7.785,0,0,0-472.908,6423.805Z" transform="translate(526.69 -6413.741)" fill="#077773"/>
            <path id="Trazado_54984" data-name="Trazado 54984" d="M-478.411,6426.121s-.63.283-.14.3.288.092,1.175-.308c.188-.084.314-.21.434-.228l-.159.022C-478.264,6426.079-478.411,6426.121-478.411,6426.121Z" transform="translate(529.497 -6415.04)" fill="#077773"/>
            <path id="Trazado_54985" data-name="Trazado 54985" d="M-473.629,6425.847a2.123,2.123,0,0,1-1.131.622s.273.846.452.82l1.195-.169a4.1,4.1,0,0,0,0-.877C-473.168,6425.994-473.629,6425.847-473.629,6425.847Z" transform="translate(527.057 -6415.013)" fill="#077773"/>
            <path id="Trazado_54986" data-name="Trazado 54986" d="M-466.91,6426.569c.175-.269-.1-.715-.1-.715l-.572.264-.163.569S-467.085,6426.837-466.91,6426.569Z" transform="translate(522.755 -6415.018)" fill="#077773"/>
            <path id="Trazado_54987" data-name="Trazado 54987" d="M-398.972,6448.058c.521.291.505.5,1.056.032a2.465,2.465,0,0,0,.626-.888.551.551,0,0,0,.7-.212c.147-.249-.08-.24.259-.424s.541-.373.551-.465.4-.217-.073-.514-1.219.1-.828-.52,1.779-.5.247-.833-1.443-.341-2.112-.224.252.488-1.063.243-1.734-.141-1.334-.7,1.064-1.358.917-1.588-.371-.358-.874-.195a3.863,3.863,0,0,0-1.054.628,8.011,8.011,0,0,1-.225,1.148l-.6,1.269-.321.958s.185.02-.167.274-1.376.287-.659.344,1.328-.143.623.367-1.712.858-.7.784,3.173-.451,3.173-.451l.73-.172.863.447a7.809,7.809,0,0,1,1.2-.421c.056-.008.1-.016.141-.024a.545.545,0,0,1-.167.484C-398.552,6447.953-399.493,6447.767-398.972,6448.058Z" transform="translate(483.918 -6424.734)" fill="#077773"/>
            <path id="Trazado_54988" data-name="Trazado 54988" d="M-407.891,6460.075a3.357,3.357,0,0,0,.476.457c.176.112,0,0,.607-.223s.481-.319.526-.485-.592.016-.94-.186-.134-.14-.444-1.19-.365-.153-.365-.153l-.868,1.13a3.905,3.905,0,0,0-.072.94c.007.435.518.428.8.342s0,0,.032-.255A.536.536,0,0,1-407.891,6460.075Z" transform="translate(486.707 -6434.695)" fill="#077773"/>
            <path id="Trazado_54989" data-name="Trazado 54989" d="M-382.707,6454.116c.026.179.486-.57.614-.087s.253.556.253.556l.817-.359.423-.728.061-.531s-.073-.675-.438-.509-.285.248-.573.47-.189.436-.288.221a6.109,6.109,0,0,1-.207-.973c-.544.351-.564.7-.564.7a.468.468,0,0,0-.282.586A2.518,2.518,0,0,1-382.707,6454.116Z" transform="translate(470.732 -6431.162)" fill="#077773"/>
            <path id="Trazado_54990" data-name="Trazado 54990" d="M-437.761,6399.9a12.077,12.077,0,0,0,3.264-.4l2.226.443c2.227.443.388.158,1.45.34s.478-.068,1.285-.183.431.242-.077.314-.491.192-1.216.447.124.225,1.117.357,1.123-.463,1.123-.463a.521.521,0,0,1,.076.536c-.145.264-.162.145-.487.646s0,0,.682.515a20.96,20.96,0,0,0,2.182,1.205,36.72,36.72,0,0,0,4,1.344l2.449-.135a7.068,7.068,0,0,1,2.184.145c1.1.269.644.456.913.417a14.078,14.078,0,0,0,2.061-.08c.073-.132-.724-1.021-1.141-1.6s-.136-.74-.136-.74l-.217-.456s-.583-.889-.263-1.2.533-.11,2.24-.323.619-.148.082-.71-.111-.348.188-.391.623.094.807-.114.393-.237,1.14-.343,1.383-.133.565-.746-3.2-.208-11.005-.739a45.227,45.227,0,0,0-12.439.563c-.425.061-2.11.434-2.508.521a26.418,26.418,0,0,1-2.662.57,12.263,12.263,0,0,1-1.905.26,5.38,5.38,0,0,0-1.57.384,3.746,3.746,0,0,0-.606.226,15.129,15.129,0,0,1,2.131-.058C-438.214,6400.57-440.394,6400.03-437.761,6399.9Z" transform="translate(508.166 -6397.829)" fill="#077773"/>
            <path id="Trazado_54991" data-name="Trazado 54991" d="M-341.648,6405.381c1.428-.089,1.8.428,2.4.022a23.83,23.83,0,0,0-4.04-1.248,14.812,14.812,0,0,0-2.061.293l.613,1.1S-343.075,6405.47-341.648,6405.381Z" transform="translate(447.684 -6401.709)" fill="#077773"/>
            <path id="Trazado_54992" data-name="Trazado 54992" d="M-281.92,6428.091s1.248-.223,1.312-.415a1.369,1.369,0,0,0-.2-1.384,35.334,35.334,0,0,0-4.247-1.9.558.558,0,0,0-.513.573l1.214,2.105Z" transform="translate(411.019 -6414.12)" fill="#077773"/>
            <path id="Trazado_54993" data-name="Trazado 54993" d="M-251.276,6449.164a5.31,5.31,0,0,0,1.243,2.557,8.929,8.929,0,0,0,1.142,1.174c.477.357,3.125,2.259,3.925,2.1s1.189,1.29,1.12-.159.392-1.1-.267-1.875-1.061-1.354-1.6-1.915-1.234-.645-1.387-1.717a9.836,9.836,0,0,1-.164-1.8c-.012-.728-10.084-7.588-10.084-7.588-1.7.242-3.672-1.072-1.7.242a20.163,20.163,0,0,1,2.238,1.6l1.822,1.244s3.236,1.864,3.21,2.642-3.564-.313-3.136.446S-251.436,6447.79-251.276,6449.164Z" transform="translate(395.26 -6423.442)" fill="#077773"/>
            <path id="Trazado_54994" data-name="Trazado 54994" d="M-226.7,6563.018c-.275-.166-.627.089-.627.089-.145.431-.148.568.233.673s.493-.07.493-.07S-226.429,6563.185-226.7,6563.018Z" transform="translate(375.358 -6499.11)" fill="#077773"/>
            <path id="Trazado_54995" data-name="Trazado 54995" d="M-223.651,6564.526c-.368.3-.42.424-.222.533a5.255,5.255,0,0,0,.56.239l.279-.45Z" transform="translate(373.251 -6500.069)" fill="#077773"/>
            <path id="Trazado_54996" data-name="Trazado 54996" d="M-220.988,6562.575l.438.188.343-.162-.438-.508C-221.059,6562.4-220.988,6562.575-220.988,6562.575Z" transform="translate(371.415 -6498.576)" fill="#077773"/>
            <path id="Trazado_54997" data-name="Trazado 54997" d="M-219.55,6565.51l.57.307.355-.233-.614-.619A.6.6,0,0,0-219.55,6565.51Z" transform="translate(370.531 -6500.338)" fill="#077773"/>
            <path id="Trazado_54998" data-name="Trazado 54998" d="M-219.073,6569.01c.3.163.31.571.522.291l.211-.281-.793-.434C-219.245,6568.761-219.37,6568.847-219.073,6569.01Z" transform="translate(370.351 -6502.559)" fill="#077773"/>
            <path id="Trazado_54999" data-name="Trazado 54999" d="M-221.222,6570.414a.745.745,0,0,0,.406.443.485.485,0,0,0,.381-.054s-.283-.529-.317-.616S-221.222,6570.414-221.222,6570.414Z" transform="translate(371.556 -6503.531)" fill="#077773"/>
            <path id="Trazado_55000" data-name="Trazado 55000" d="M-224.533,6570.424l.575.374.187-.482-.489-.387Z" transform="translate(373.586 -6503.383)" fill="#077773"/>
            <path id="Trazado_55001" data-name="Trazado 55001" d="M-281.582,6876.533c-.725.041-1.575.071-1.575.071a.53.53,0,0,0-.227.762l.823.43s1.155.412,1.484.153,1.207.132.432-.608S-280.856,6876.49-281.582,6876.533Z" transform="translate(409.73 -6691.426)" fill="#077773"/>
            <path id="Trazado_55002" data-name="Trazado 55002" d="M-402.215,6888.815c-.032-.117-.308-.131-.308-.131s-.164.243.018.125c.061-.039.136,0,.21.07C-402.24,6888.865-402.206,6888.846-402.215,6888.815Z" transform="translate(482.794 -6698.883)" fill="#077773"/>
            <path id="Trazado_55003" data-name="Trazado 55003" d="M-400.571,6890.087v-.009l-.007.011Z" transform="translate(481.559 -6699.738)" fill="#077773"/>
            <path id="Trazado_55004" data-name="Trazado 55004" d="M-404.333,6889.506c-.158.042-.706.009-.784.1a3.609,3.609,0,0,1-.824.34l.049.342.9.055.664-.061a2.184,2.184,0,0,1,.5-.3l-.2.028A1.942,1.942,0,0,0-404.333,6889.506Z" transform="translate(484.849 -6699.387)" fill="#077773"/>
            <path id="Trazado_55005" data-name="Trazado 55005" d="M-450.156,6585.554c.478-.28.671-1.067,1.191-1.627s.628.275,1.7-.333.15-.447,1.681.034,1.271.366,1.622-.6-1.787-.992-3.023-1.544a4.8,4.8,0,0,0-3.263-.66c-2.189.038-.833.574-1.9.119s-1.225-.192-2.39.339c-.754.345-.022.7.933.566s.7.234.785.8-.321.531-.863.794a8.424,8.424,0,0,1-2.694.987c-1.686.361.1.714.1.714a8,8,0,0,0,2.662-.136c1.6-.319,1.008-.629,2.53-.42l.073.012C-449.6,6584.837-450.626,6585.83-450.156,6585.554Z" transform="translate(516.228 -6509.998)" fill="#077773"/>
            <path id="Trazado_55006" data-name="Trazado 55006" d="M-193.111,6515.251a98.567,98.567,0,0,0-11.267-23.322,99.363,99.363,0,0,0-9.151-11.858l-1.609-1.279c-1.657-.4-2.1-.657-2.464-.287s-.865.988-.827,1.256,1.37-.013.038.268-1.517.58-1.837.261-1.169-1.793-.978-1.091,1.291,2,1.207,2.7a9.713,9.713,0,0,0,.068,2.086,18.008,18.008,0,0,0,1.3,3.324,1.364,1.364,0,0,1,1.09,1.577c-.123,1.384-.1,1.563-.194,2.169-.08.5-.541.309-.589.988a14.769,14.769,0,0,1,3.422-.024s.631.415,1.632,1.14c0-.013.007-.018.012-.029a2.246,2.246,0,0,0-.153,1.229c.153.646-.07,1.224-.679,1.007s-2.375-1.485-1.651-.251,1.833,1.744,1.218,2.561-1.382-.714-.616.817,2.411,3.242,1.4,3.446c-.73.147-2.5-.066-3.814.161a7.809,7.809,0,0,0,1.348,2c.543.606-.319.972.776,2.032a4.347,4.347,0,0,1,1.157,2.994,3.948,3.948,0,0,0,.4,1.478c.071.147.151.3.25.465.5.84-.072,1.5-.094,1.988s-.03.217.83,1.34,1.361.566,1.073,1.761a2,2,0,0,0,1,2.318c.754.591.875-.063,1.053.974a1.5,1.5,0,0,0,.746,1.034c.327.2.645.287.7.34.106.106,1.667,1.22,1.747,2.212.078.963.965,2.531,3,4.541.058.058.114.115.174.172,2.156,2.093,2.772,4.709,3.793,3.318a8.3,8.3,0,0,1,2.477-2.083c.213-.213.12-.655.769-.809s.978-.2.8-.812a2.026,2.026,0,0,1,.411-1.608s-1.068-6.015-.922-6.521a6.015,6.015,0,0,0-.894-3.032.478.478,0,0,0-.288-.183.456.456,0,0,1,.33.177,5.992,5.992,0,0,1,.872,3.035c-.146.506.912,6.522.912,6.522.209-.242.823-.815,1.188.895s.166,1.829.64,1.731,1.1-.582,1.427.83c.134.586-.174-5.074-.58-11.9Q-192.775,6516.275-193.111,6515.251Zm-15.242-2.569,0,0c.028.039.054.081.082.121C-208.3,6512.765-208.325,6512.722-208.353,6512.682Zm-1.9-17.217h0c-.024.019-.047.031-.071.048C-210.3,6495.5-210.274,6495.484-210.25,6495.465Zm3.03,21.886a2.6,2.6,0,0,0,.372.15A2.56,2.56,0,0,1-207.22,6517.352Zm8.126-7.166a5.889,5.889,0,0,1,.143.748,6.222,6.222,0,0,0-.14-.728,27.38,27.38,0,0,0-2.54-5.433A27.065,27.065,0,0,1-199.095,6510.186Zm-4.444,13.725h0s.006,0,.009,0Zm2.706-3.566h-.021s-.007.006-.008.01a.38.38,0,0,0,.022-.194A.482.482,0,0,1-200.832,6520.345Zm1.428.373v-.005l.09.05C-199.344,6520.745-199.374,6520.732-199.4,6520.717Zm-.576-1.562c.079.277.518.62.59,1.141C-199.475,6519.777-199.916,6519.435-199.98,6519.155Zm-1.567-3.724a9.708,9.708,0,0,0,.069,2.425,9.821,9.821,0,0,1-.105-2.641c.172-2.029-.326-2.53,1-3.526a1.747,1.747,0,0,1,.972-.385,1.156,1.156,0,0,0,.1.862c-.254.017-.637-.321-1-.045C-201.837,6513.116-201.375,6513.4-201.547,6515.431Zm4.1.684a1.374,1.374,0,0,0-.123.966c.1.676.09.921-.828,1.248.728-.3.141-.469.047-1.13-.044-.307-.737-.478-.763-.656h0c.493-1.663-1.105-3-.665-4.279.379.813,1.419,1.785,1.891,2.737A2.639,2.639,0,0,1-197.443,6516.114Z" transform="translate(371.562 -6447.2)" fill="#077773"/>
            <path id="Trazado_55007" data-name="Trazado 55007" d="M-467.143,6510.637c-1.248.223-1.3.276-3.557-1.226s-3.429-1.4-4.2-1.256-2.27.536-2.432.255-.495-.264-.742.136-.593.115-1.877-.341-1.148.072-1.729.7-1.222,1.479-1.234,1.39,0-.4-.025-.6a3,3,0,0,1,.227-1.187c.21-.668-.165-.949-.451-1.242s-.951-.26-1.536-.086-.1-.472-.443-.757-1.728-.149-3.122-.527-1.66-.1-2.257.411-.458,1.492-.928,1.833-1.055.939-1.046.787-.529-.29.039-.583.461-.4,1.012-1.025.2-.727.36-1.539-.072-.294-.955-.29a7.416,7.416,0,0,1-2.759-.975c-.913-.417-.667.885-.667.885a2.95,2.95,0,0,0-1.264.97,4.393,4.393,0,0,0-.659,1.795c-.095.621-.747.531-.636.03s.487-.86,1.159-2.353.358-.264.877-.687.378-.236.411-.65.959-1.716.892-2.193-.448.064-.789.021-.955-.715-1.6-1.838-.759-2.444-1.829-2.474c-.523-.015-1.466.016-1.487-.132s.561-.443.123-.677c-.857-.455-.385-.082-.986-.771s-.623-.549-1.225-.6a8.077,8.077,0,0,1-1.522-.345c0-.013.007-.022.011-.036-.245-.07-.514-.151-.814-.246-1.2-.376-1.3.186-1.3.186s-1.382-.078-1.882.586-.646-.045-2.035.152c-.788.112-.993.083-1.1-.052a3.163,3.163,0,0,0-.3-.478,3.93,3.93,0,0,0-2.767-.549c-.9.129-.15-.252-.141-.83s-.132-.285-.695-.812a4.038,4.038,0,0,0-1.716-.716c-.164-.051-.335-.109-.514-.183-.938-.383-.9-.085-1.228-.281-.3-.176-.285-.4-.605-1.016-.036-.067-.074-.139-.118-.218a1.6,1.6,0,0,0-1.411-.654c-.241-.012-.453-.008-.583-.026a14.084,14.084,0,0,1-2.086-.364c-.272-.144-.351-.7-.7-1.222s-.38.054-2.1.207-1.309.117-1.268.567.038.427-.772,1-.734.469-1.661.373a5.963,5.963,0,0,1-2.289-1.156c-.5-.293-.608.064-1.227.54a2.512,2.512,0,0,1-1.917.5c-.915-.007-.569-.307-.648-1.184s-.882-.74-3-.69-1.547.858-2.731,1.209-.832.1-.743.721.961,1.777,1.085,2.489-.039.688-.6.95-.666.618-.7.235-.39-.491-.761-1.009.116-.472.171-.89.3-.293.51-.756-.178-.771-.3-1.164-.329-.386-.8-.98.017-.366.634-.682.468-.408.638-1.139-.623-.526-1.632-.064-.344,1.279-.85,1.1-.822-.315-.839.529a.81.81,0,0,1-1.051.81c-.285-.073-1-.268-1.1-.048s-.094.788-.7.67-.425.061-1.22.584-.626,1.706-.467,2.822-.742-.076-1.14.982-1.325.325-1.141,1.62-.241.559-.336.367a1.364,1.364,0,0,0-.244-.323,6.15,6.15,0,0,0-.635-.555c-.566-.443-.71-.173-1.589-1.05s-2.685.245-3.876.552a12.6,12.6,0,0,0-2.605,1.289c-.916.418-1.18-.151-1.514-.682s-.318-.092-.29.315-.209.029-.425.015-.343-.164-.288-.628c.045-.369-.112-.314-.433-.341a1.728,1.728,0,0,1-.276-.044c-.505-.126-.635-.4-.865-.728a4.835,4.835,0,0,1-.578-1.012,3.718,3.718,0,0,0-.457-.8s-.287-.415-.559-.878-.224-.446.164-.775-.022-.156-.2-.791.1-.424.583-.881-.14-.876-.25-1.437.009-.365.2-.97a11.747,11.747,0,0,1,.535-1.275.528.528,0,0,0-.541-.751c-.176.048-.717.262-1.117.341s.378-.235.628-.567.541-.214.775-.5.112-.335-.208-.335-.6-.188-1.215-.511-1.213-.01-1.58-.346-1.008.463-1.479.211-.548.108-1.231.448a3.526,3.526,0,0,1-2.278.05c-.785-.161-.769.383-1.071.184s-.141-.132-.691.067-.512-.17-.84-.123c-.107.015-.1-.036-.019-.134.167-.2.649-.61,1.1-1.083.662-.7.36-1.326.344-2.084s.261-.735.684-.978c.222-.127.131-.152.115-.383a2.76,2.76,0,0,1,.428-1.365c.834-1.637.449-.914.4-1.455a1.983,1.983,0,0,1,.155-1.267c.218-.4,1-1.327,1.312-1.918s.287-.983-.566-.771-.978.625-1.43.233-1.955.187-3.038.493-1.11.765-1.222,1.9a8.536,8.536,0,0,1-.784,2.847c-.312.591-.7.828-2.245,1.139s-.295.285-1.114.523-.674.187-1.724.943-1.177-.137-1.591-.686-1.024.3-1.612-.2-.315-1.094-.382-1.722-.767-.574-.987-1.637a23.873,23.873,0,0,1-.755-2.9c-.222-1.563-.14-.982.426-2.795s.059-1.512.508-2.213a1.922,1.922,0,0,0,.281-.775,6.363,6.363,0,0,0-.042-1.4c-.054-.7-.064-.446.209-.941a1.3,1.3,0,0,0,.229-1.125c-.079-.559.113-.654.581-1.222s.618-.476.785-.909.138-.156.854-.259.349-.117.621-.452.176-.048.659-.185.34-.186.381-.533-.179-.453.094-.947.227.31,1.485-.325.49-.411,1.421-.134.694.061,1.421-.293.361.29.752.3a3.466,3.466,0,0,1,1.049.147.709.709,0,0,0,.97-.411c.2-.37.339-.025.713.2s.183-.323-.252-.808,0-.456-.028-1-.2.029-.695.1-.448-.1-.182-.475.685-.007,1.84-.079,1-.37,1.146-.619.121.051.207.5.273-.062,1.234-.381.406-.468,1.893-.133.012.888,1.4,1.009,1.066-.646,1.873-.76.806.1,1.283.668,1.054.124,1.314.906-.288.952-.246,1.676.335,1.714.72,1.659.153.4.4.672,1.3,1.668,1.581,1.689.806.31,1.464-.634a2.771,2.771,0,0,0-.107-3.113c-.6-.584-.238-.817-.173-1.434s-.23-.544-.672-1.3a8.338,8.338,0,0,1-.779-1.834c-.208-.607-.5-.535-.174-1.221a9.819,9.819,0,0,1,1-2.162,21.174,21.174,0,0,1,1.755-1.479,19.845,19.845,0,0,0,1.883-1.862c.641-.638,1.585-.59,1.713-.973s.326-.335,1.276-.835a8.349,8.349,0,0,0,1.387-.85c.751-.5,1.148-1.25.339-1.636s-.041-.291,1.143-.641-.211-.357-.636-.616-.409-.625-.364-1.11a2.318,2.318,0,0,0,.024-1.279c-.188-.68.049-.94.533-1.557s.029.2.009.864.086.444.575.671.445.232.493-.229a7.6,7.6,0,0,1,.094-1.267c.119-.45.128-.064.713.194s.25-.172.734-.787.346-.46.459-1.113c0,0-.681-.291.2-.53s.09-.331.487-.752.237-.1,1.476-.232,1.216-.128,1.454-.708.179-.025.873.2.894-.788.715-.923-.684-.153-.7-.765-.079-.719,1.058-1.723.778-.316,1.348-.807.4-.422.967-.434.656-.207,1.056-.287.4-.338,1.174-.479.418-.272.338-.731.062-.206.982-.383a9.389,9.389,0,0,0,2.307-.92c.831-.376.04.282.081.354s.326-.062,1.209-.066.047.222-.02.4-.382.207-.768.17-.4-.125-.723.058-1.283.623-1.283.623a7.311,7.311,0,0,1-.263.721,1.689,1.689,0,0,0-.225.776c-.017.306.462.571.7.553a5.157,5.157,0,0,0,1.221-.522,4.892,4.892,0,0,0,.918-.829c.271-.236-.017-.226.135-.551s.462.146.462.146a1.193,1.193,0,0,0,.551-.306c.312-.272.181-.117.685-.219s.63-.074.888-.4.16-.159,1.11-.445.384-.405.094-.728-.224.031-.624-.216-.024-.163-.309.075-.35,0-1.276.136-1.393-.046-1.476-.307.026-.3-.873-.354-.419-.214-.508-.839-.019-.135-.557-.058-.125-.074.1-.606.282-.428.382-.692-.506-.019-.874.284-.639.25-.886-.045-.315-.206-.838-.188-.147-.07-.008-.136a1.546,1.546,0,0,1,.605-.165,1.233,1.233,0,0,1,.66.064l.846-.234a8.082,8.082,0,0,0,1.109-.4c.679-.29.631-.386.114-.562a2.7,2.7,0,0,0-1.737-.292,15.355,15.355,0,0,0-2.933.856s-1.048.453-1.575.71a5.491,5.491,0,0,0-1.43,1.085c-.5.48-.738.059-.435-.379s.826-.729,1.466-1.446.767-.154,1.56-.2.608-.223,1.077-1.109.5-.345,1.146-.619a7.6,7.6,0,0,1,2.061-.293s1.632-.095,4.071-.3,1.127-.434,2.5-1.4.664-.9,2.1-1.165.981-.276.981-.276a1.822,1.822,0,0,0,.893-.688c.521-.621-.348-.141-.312-.692s-.211-.518-.8-.775-.714.124-.835-.246.087-.194-1.168-.016a3.855,3.855,0,0,0-1.943.8,1.4,1.4,0,0,1-.9.242c-.345-.02.308-.408.308-.408a4.1,4.1,0,0,0,1.255-.338,7.612,7.612,0,0,1,.977-.525c.64-.319.688-.3.276-.473s.173-.39-.742-.077-1.03.146-1.244-.232-.135.019-.842.188-.762.108-.928-.415-.96,0-1.542.083-.387-.31-.149-.89-.112-.144-.2-.61-.195-.245-1.334-.538a5.932,5.932,0,0,1-2.44-1.249c-.892-.647-.355.073-.426.221s-.507.938-.693,1.237-.515.073-1.428.727-.829.278-.829.278a6.856,6.856,0,0,0-1.289-.706c-.678-.268,0,0-.627-.39s-.051-.357-.069-1.288,0,0-.9.286-.557.1-.729-.306-.669-.2-1.474-.565-.474.045-1.382.083a19,19,0,0,0-2.682.427c-1.382.242-.256.446-.519.849s-1,.369-.488,1.071-.372.918-1.518,1.219-.288.223,1.464.977.268.918.011,1.685-1.313,1.052-2.638,1.377-1.728.382-.961.638.164,1.8.164,1.8l-.056,2.5s-.451,1.648-1.034,1.731l-.248.035-.029,0-.126.019c-.4.057-1-1.578-1-1.578a11.1,11.1,0,0,1-1.021-1.718,2.334,2.334,0,0,1-.2-1.382,6.553,6.553,0,0,1,.556-1.558c.346-.778-.638.012-1.208.184a10.435,10.435,0,0,1-1.7.293c-.717.1-.611-.115-1.865-.575s-1.012-.048-2.1-.623-2.213.295-3.078.645-.053-.373-.093-1.082-.144-.694-.526-.914.273-.646,1.9-1.88,1.463-1.286,2.888-1.55.92-.708,2.03-1.261,2.639.126,2.97-.437.694-.585,1.445-1.192a3.607,3.607,0,0,0,.9-.845c.206-.262,1.229-.065,1.741-.32s1.434-.629,2.429-1.136.1-.591-.122-1.288,2.477.059,3.1-.06c.516-.1.488-1.077.579-1.09l.224-.032c-.156.022-.071.325-.009.918.089.837,0-.023.5-.095s.519.006,1.159.218-.009.147-.122.346a4.476,4.476,0,0,1-1.211.564s-.978.411-.43.4a5.63,5.63,0,0,0,1.4-.2c.62-.144.379-.335.793-.849s.247.025.909-.251.653.089.674.238-.316.349-.883.648a2.312,2.312,0,0,0-.833.567,6.542,6.542,0,0,1-1.558.616,19.57,19.57,0,0,0-2.289.781c-.241.187.606.46,1.525.277s1.168-.356,2.221-.537.727.262,1.537.6.572.374.915.222a3.554,3.554,0,0,1,.885-.208l2.757-.117a5.475,5.475,0,0,0,1.646-.428c.447-.288-1.475.129-1.475.129a7.339,7.339,0,0,1-1.748-.508c-.5-.293,1.813-.105,1.813-.105l1.681.034a2.316,2.316,0,0,0,.732-.642c.168-.319-.12-.417-.874-.572s-1.248.227-1.768,0-.315-.5-.268-.6a20.3,20.3,0,0,1,2.479.5,1.489,1.489,0,0,0,1.135-.374c.542-.472.948-.833,1.162-1.046s-2.449-.077-2.449-.077l-1.784.1-1.629-.315a4.8,4.8,0,0,0,.9-.553c.636-.454-.657-.119-.657-.119l-1.4.017-1.66.114-1.752-.57,1.085-.575a9.681,9.681,0,0,1,1.222-.7,6.52,6.52,0,0,0-2.759.91c-.369.137-1.059.468-1.8.761-.064-.169-.408.033-1.245.128a12.488,12.488,0,0,0-2.106.3c-.884.217-.584,1.2-.721.718s-.371-.2-1.338.076-1.111,1.023-.519,1.008.9-.082.8.457-1,.536-1.474.726-.641.258-.626.469-.253.416-.535.365,0,0-.137-.323.234-.283.628-.567-.041-.449-.713-.354-1.319.849-2.3.988.292-.679.831-1.394-.912-.144-1.546.22a2.82,2.82,0,0,0-1.429,1.684c-.071.626-.823.642-1.562.746a8.4,8.4,0,0,0-2.795.922c-1.434.682-1.645.325-2.054.178s.151-.386.688-.463a2.39,2.39,0,0,0,1.4-.472,9.2,9.2,0,0,1,1.047-.672c.288-.224-.541-.105-1.651-.039a10.608,10.608,0,0,0-3.425,1.467c-.874.443.105.418-.036,1.029s-.624.591-1.524.536-.493.07-1.457.526c-.884.418-.686.2-.876-.208q-4.346,2.421-8.4,5.244c-2.919,2.091-6.037,4.535-8.336,6.48q-1.4,1.208-2.746,2.468c-2.484,2.406-4.3,4.65-5.027,5.42-.795.842-.181.876-.68,1.433s.114,1.017-.373,1.45a2.051,2.051,0,0,0-.393.54,14.351,14.351,0,0,1-.979,1.813c-.59.782-.775,1.841-2.051,3.146a10.8,10.8,0,0,0-2.719,4.67,8.341,8.341,0,0,1-2,3.5,1.82,1.82,0,0,0-.518,1.927,2.375,2.375,0,0,1-.356,1.994c-.376.357.148.4-.19,1.667s-.292,1.379.651,1.791.67.209.575,1.256a6.335,6.335,0,0,0,.213,1.663,2.812,2.812,0,0,1-.053.956c-.258,1.191.014,2.458-.23,3.313s.635.608.715,1.813-.339,1.475-1.085,1.582.033.876.834,1.582,1.2.5.988,1.591a3.25,3.25,0,0,0,.906,2.939c.788.83.561,1.591.732,1.08s.47-.553.352-1.386-.187-.673-.614-.673-.063-.659-.169-1.4-.328-.591-.246-1.3a2.816,2.816,0,0,0-.733-2.3c-.709-.841-.194-.366-.246-1.727s.153-1.57-.239-2.4-.229-1.608.494-2.743.244-.43.372-.388a2.151,2.151,0,0,1,.754,1.017c.162.493-.09.651-.193,1.213s.037,1.118-.185,1.483.358.588.473,1.179.23.544.635.821.256.3.3.9.538.472.29,1.083a2.194,2.194,0,0,0,.753,2.081,2.041,2.041,0,0,1,.753,1.654c.08.778.882.635,1.124,2.331s.839,1.612,1.077,2a1.8,1.8,0,0,1-.109,1.595,2.831,2.831,0,0,0-.292,2.017c.23.757,1.686,1.354,1.81,1.747a1.956,1.956,0,0,0,2.005,1.082c1.251-.042.438.028.988.52a7.612,7.612,0,0,0,1.717,1.146c.49.227,1.1.163,2.457.563s.492.567.995.564a6.2,6.2,0,0,1,1.638.269c1.177.242.742.076,1.341-.373s.808-1.391,2.062-1.409.061.265,1.248.255.135-.019.579.374c.354.313,1.282,1.183,2.149,2.063.22.223.436.446.638.662,1,1.065,1.5.447,2.547.229a5.483,5.483,0,0,1,.548-.1c.337-.028.147.166.225.717.1.737.361.45,1.295.751s1.095-.02,1.951-.711.376.2.2.746.051.517.952,1.072,1.076,1.783,2.319,1.7-.135-.642.09-1.312,1.535.988,1.982,1.4-.154.205-.87.306-.314.045-.826.46.1.715.187,1.317.312,1.071,1.375.83,1.251.437,1.251.437l.678.588a3.155,3.155,0,0,1,.482.979c.054.38-.013.39.863.926a.91.91,0,0,0,1.325-.165,18.681,18.681,0,0,0,2.352.3c.451-.042.253.009,1.036.376s.361.609.616,1.28.244-.059.839-.37.682-.667.682-.667l-.271-.622-.774-.778s.851-.281,1.261-.453.494-.867.952-1.183,2.16.08,2.316.7a9.234,9.234,0,0,0,.395,1.493c.2.45.918.667,1.09,1.075s.812,1.046.651,1.365.614.62.249,1.1.436,1.784.087,2.54.405,1.081.51,1.818a2.584,2.584,0,0,1-.873,1.9c-.237.1-1.552.335-1.582,1.091s-.567.832-.567.832a.786.786,0,0,0,.031.543c.128.255.092.328-.244.854s-.423.242-1.754.523-.371.121.316.935-.154.364-.416.605-.215.737-.45,1.34-.457.156-.285.724a2.4,2.4,0,0,1,.023,1.934c-.363.826-.052.6.367.973s.445-.085,1.475.406.341,1.112-.264,1.2,0,0-.586.539-.228.328-1.083,1.7-.1.562.785,1.506.376,1.2-.049,1.419.863.447,2.564,1.321.579.215.981.954.237.377,1.247,1.053,2.172,3.223,2.84,3.743a2.968,2.968,0,0,1,1.144,1.773c.108.6.05.677.633.594s1.193.992,2.072,1.71,1.02.9,1.121,1.459-.065.829.184,1.295,1.068.76,2.606,1.611a13.992,13.992,0,0,0,5.354,1.973c3.2.661.675.405,1.989.811s.156.456.469.73,1.1.049,1.84.4a4.454,4.454,0,0,1,.578.3c.134.1.147.19.237.452.156.456.278.666.715,1.972a9.438,9.438,0,0,1,.49,2c.271,1.259-.017.685-.019,2.121s.19,1.978-.267,2.463-.309.558.072.822.22.584.6,1.624.459,1.461.321,1.937.351.7.034,1.362-.17.73-.011,1.368.034,1.043-.415,2.063.226.947.411,2.083-.532,1.078-.217,1.854a20.033,20.033,0,0,1,.776,1.918c.252.807.095.829.021,1.592s-.217,2.172-.326,2.688a15.924,15.924,0,0,1-.322,1.755c-.254.947-.519.369-.436.95s-.023.322-.365.644-.263.243.021.795a15.469,15.469,0,0,0,.744,1.375,4.2,4.2,0,0,1,.367.654s-.1.265-.25.65a2.517,2.517,0,0,1-.4.718c-.263.4-.058.715.143,1.164s.022.156.156.775a1.312,1.312,0,0,1-.052.919,2.093,2.093,0,0,1-.443.905c-.282.428-.061.214.06.425s.362-.029.832-.1.166-.114.246-.194a5.015,5.015,0,0,0,.238-.9,3.85,3.85,0,0,1,.341-1.3c.314-.683.784-.111.784-.111l.066.947s-.125.405-.273.973-.1.4.027,1,.055.92.158,1.649-.133.778-.3.787-.326-.151-.567-.451-.2-.443-.432-.789-.034.187-.248.506-.318.333-.368.735-.3.483-.831.589-.971.138-2.061.293.435.06,1.193.135a2.467,2.467,0,0,0,1.737-.323c.444-.307.271-.023.427,0a4.846,4.846,0,0,0,.875-.063c.435-.047.183.323-.09.438s-.29.209-.363.447.337.331.337.331-.052.388-.235.384-.312-.048-.542-.061a1.189,1.189,0,0,0-.666.354c-.107.106.337.438.337.438a2.591,2.591,0,0,1,.495-.268c.288-.117.321.758.528.819s.259.827.263.878c.008-.013.018-.025.024-.036a.8.8,0,0,1,.2-.271,2.242,2.242,0,0,1,.547.074l.037.253s-.2.135-.466.31-.032.172.04.253.557-.064.557-.064a1.993,1.993,0,0,1,.769.148c.249.146.881.406.881.406s.017.545-.231.519-.294-.14-.418-.152.034.238-.09.438a.284.284,0,0,0,.051.357l1.1.209,1.088.361.824-.208.56-.353.336.226a2.717,2.717,0,0,0-.051.493c.017.119,1.143.323,1.143.323a9.122,9.122,0,0,1,.981.036c.278.044.862-.293,1.383-.252h.013a5.123,5.123,0,0,0,1.391-.2l1.634-.384a1.626,1.626,0,0,0,.452-.246c.162-.146-.6-.128-.888-.238a11.793,11.793,0,0,0-1.179-.348c-.251-.056-.477.312-.69.1a8.976,8.976,0,0,1-.671-.6,4.926,4.926,0,0,0-.98-1.01c-.405-.277-.657-.626-.326-1.035.2-.249.225-.291,1.118-.44s.58-.265.574-.788-.006-.523.795-1,.925-.405,1.576-1.773-.153-.434-.275-.325-.736.446-1.9,0-.409-.625-.123-1.19,1.085-.724,1.975-.9.135-.338.539-.714.23-.147.289-.7-.115-.645.692-1.078-.531-.518-.447-.894-.416-.031-.351-.861-.557-.058-.332-1.046,1.081.21,3.238-.051,1.486-.8,1.486-.8-1.061-.715-.5-1.25-.1-.67-.165-1.48.454-.019,1.465.02,2.189-.037,5.3-1.619,2.819-3,2.269-3.011-.852.121-.467-.39-.056-.721-.325-1-1.752-.754-1.823-.926-.07-.491.3-.5,2.444.473,2.444.473,1.785.02,2.912-.095,1.235-.312,2.017-1.243c.309-.369.63-.815.985-1.3a21.331,21.331,0,0,1,1.963-2.4c.63-.645.773-.772.924-.84a2.557,2.557,0,0,0,.021-.547c-.038-.269.3-.653.3-.653l.542-1.175a.869.869,0,0,1,.493-.07c.192.063.477.3.3.526a8.66,8.66,0,0,0-.933,1.158,1.048,1.048,0,0,0-.167.521c.15-.079.343-.191.6-.355,1.573-1,1.066-1.61,1.823-2.72a4.825,4.825,0,0,1,2.234-2.08c1.247-.662.517-1.075.587-2.3a5.6,5.6,0,0,1,.433-2.529c.481-1.275.692-.759,1.679-1.7s1.2-1.56,2.367-2.318.923-1.226,1.87-1.314.531-.12,1.185-.988,1.594-.683,3.405-.8.455-.656,1.166-1.122a1.6,1.6,0,0,0,.93-1.5,2.6,2.6,0,0,1,1.109-1.844,2.309,2.309,0,0,0,.942-1.409c.225-.67.647-.913.936-1.774s.316-1.958.591-1.632.039-.689.687-1.921.451-2.3.593-3.547.093-2.884.254-4,.6-.906.877-.262.334-.867,1.225-2.315,1.276-2.277,1.565-2.82.7-.874,1.269-2,.7-2.15,1.482-3.72-.124-3.445-.379-4.594S-465.9,6510.414-467.143,6510.637Zm-79.166-86.222c0-.3.1-.287.659-.428,0,0,.64.213.567.558s0,0-.814.237S-546.309,6424.719-546.31,6424.415Zm-3.961-1.2a2.636,2.636,0,0,1,.824-.634,2.571,2.571,0,0,1-.006,1.246c-.163.782-.394,1.089-.6.936s-1.036-.855-1.036-.855Zm-1.266,2.887c.393-.234.461.021.537.558l-.512.255s-.585-.038-.593-.311S-551.93,6426.338-551.536,6426.1Zm-2.6-5.861a4.346,4.346,0,0,1,1.242-.479,2.5,2.5,0,0,1-.6,1.33c-.508.5-.35.323-.478.068s-.2-.336-.81-.553S-554.786,6420.608-554.137,6420.242Zm8.433-10.217s-.554.2-.639.091.032-.414.032-.414l.432-.175a.551.551,0,0,1,.344.087Zm-.151-1.622a2.376,2.376,0,0,1,.478-.067c.149-.021.9.3.751.349a5.239,5.239,0,0,1-.687.1s-.307-.018-.226.336-.444.093-.448.063S-546,6408.454-545.855,6408.4Zm-12.351,25.449,1.583-.013.995-.719.636-.455.57.15.253.066a8.836,8.836,0,0,1-.466,1.221c-.261.523-1.588.407-1.588.407s-.832.149-1.762.252-.514.668-.514.668l-1.3.714a7.639,7.639,0,0,0-2.742,1.718c-1.142,1.186-1.613.229-1.613.229s-.66-.778-.193-1.355.529-.566.712-.562.055.6.388.37c0,0,.64-.213,1.378-.379a4.631,4.631,0,0,0,1.1-.39,6.567,6.567,0,0,0,1.023-.52c.653-.337.359-.477.359-.477l.1-.622Zm-11.55-6.864c.274-.858,0,0,.572-.263a3.679,3.679,0,0,1,.656,1.183c.1.5-.278.191-1.4.466S-570.03,6427.848-569.756,6426.988Zm-4.1.28c.005-.82,0,0,.657-.094l1.275.4-.47.553S-573.866,6428.09-573.86,6427.269Zm-.556,4.453,2.869-1.472,2.83-1.312s1.491-1.093,2-.285a9.755,9.755,0,0,0,.927,1.164,4.385,4.385,0,0,1,.615,1.107s-1.017,1,1.134.689,2.185-1.131,3.256-.462,1.045.063,1.134.9.515,1.265-.249,1.039-1.335-.388-1.6-.077a6.9,6.9,0,0,0-.637,1.3s-.275,1.072-.59,1.208-.871.307-.871.307-.075-1.174-.374-1.344-.709.586-1.14.557.713-.77.821-1.515a.922.922,0,0,0-1.065-1.063c-.538.076-.3-.412-.918.191s-1.378,1.441-1.378,1.441-1.3.489-1.365,1.348.353.983.028,1.7-.68,1.434-.68,1.434-.645.607-.93.314-.159-3.045-.159-3.045l.42-1.977,1.636-1.141s.982-.383,1.451-.511a3.007,3.007,0,0,1,1.1-.217c.252.056.589-.145.005-.607s-1.85.263-1.85.263c-.318.137.07.294-.809.115s.075-.467-1.176-.2a10.884,10.884,0,0,0-2.224.741l-1.186-.009a4.182,4.182,0,0,1-.926.132C-574.651,6432.424-574.416,6431.722-574.416,6431.722Zm-1.918-1.489c-.341.17,0,0-.7-.325s-.05-.236.68-.887a4.657,4.657,0,0,1,.532.744C-575.728,6429.994-575.993,6430.063-576.334,6430.232Zm-2.064-8.516c.138-1.174-.209-.4.582-1.267l.8.893a13.92,13.92,0,0,1-1.205,1.595C-578.857,6423.635-578.536,6422.891-578.4,6421.717Zm.154,3.927c-.062-.811.243-.49.935-.983l.221.485a4.116,4.116,0,0,1-.061,1.74,11.268,11.268,0,0,1-.679,1.706c-.126.049,0-.273.089-1.167S-578.181,6426.455-578.244,6425.644Zm-3.011-3.794a2.668,2.668,0,0,1-1.313.187c-.446-.149-.564-.345,1.215-.874Zm1.849,5.643c.321.545.026,1.26.085,1.889s-.576.234-.576.234.1-.591.232-1.157-.528-.927-.528-.927a3.494,3.494,0,0,0,.232-1.157c0-.608-.085-.6.423-1.093A5.523,5.523,0,0,0-579.405,6427.492Zm-3.45-6.9c.948-.408.76-.655,1.776-1.437l.733.442a11.648,11.648,0,0,1-1.4,1.293c-.85.668-1.1.43-1.946.459S-583.8,6421-582.855,6420.589Zm4.57,60.591.047.026.065.045C-578.208,6481.228-578.247,6481.2-578.285,6481.18Zm46.438,50.767c.005,0,.01,0,.015.006a.382.382,0,0,0-.148-.009S-531.931,6531.946-531.848,6531.946Zm-3.852-13.276.017.013c.007.006.012.013.019.019Zm19.932-15.018c-.588-.919-.779-1.3-.273-1.92s.875-.718.384-1.377a5.545,5.545,0,0,0-1.377-1.612,5.545,5.545,0,0,1,1.377,1.612c.491.659.122.757-.384,1.377s-.315,1,.273,1.92.715,1.493,1.415,1.85a2.445,2.445,0,0,0,1.248.32,2.44,2.44,0,0,1-1.249-.32C-515.053,6505.146-515.18,6504.571-515.768,6503.652Zm8.791-.828a1.977,1.977,0,0,0,.317-.045,2.042,2.042,0,0,1-.363.051c-.118.007-.212.016-.292.026C-507.227,6502.843-507.117,6502.832-506.977,6502.824Zm-2.439.613.115.2c.689.026,1.622.4,2.02.352-.384.062-1.335-.346-2.035-.372l-.1-.18Zm9.972,51.207.048-.036c.016-.011.032-.02.048-.031Zm-4.348-51.926a5.154,5.154,0,0,0-1.271-.582.455.455,0,0,0-.145,0,.205.205,0,0,1,.145,0,4.438,4.438,0,0,1,1.263.578v0s.326-.035.7-.085C-503.614,6502.712-503.792,6502.719-503.792,6502.719Zm1.657-.232.14-.024a1.272,1.272,0,0,1,.459-.024C-501.646,6502.554-501.729,6502.451-502.135,6502.486Z" transform="translate(610.009 -6402.073)" fill="#077773"/>
            <path id="Trazado_55008" data-name="Trazado 55008" d="M-359.09,6646.884a4.665,4.665,0,0,0-3.886-4.538c-1.514-.21-3.143.341-4.541-.277-1.329-.587-2.147-2.123-3.567-2.43-1.15-.249-2.4.4-3.5-.026-.846-.326-1.343-1.19-2.041-1.769a3.658,3.658,0,0,0-5.178.787c-.328.5-.795,1.2-1.337.94-.308-.146-.4-.528-.555-.832a1.749,1.749,0,0,0-2.916-.062c-2.093-1.867-1.991-5.135-3.182-7.675a7.938,7.938,0,0,0-4.988-4.216,7.937,7.937,0,0,0-6.449,1.035,4.879,4.879,0,0,1-2.248,1.136c-2.2.131-3.6-3.483-5.692-2.771-.492.168-.9.572-1.413.643-.9.123-1.557-.762-2.132-1.46a8.58,8.58,0,0,0-9.068-2.63,8.6,8.6,0,0,1-2.208.619,8.526,8.526,0,0,1-3.049-.826,2.916,2.916,0,0,0-3,.315c-.24.244-.419.568-.732.708-.838.373-1.511-.818-2.38-1.115-1.3-.444-2.325,1.25-2.348,2.621s.311,2.928-.574,3.976a6.419,6.419,0,0,0-.766.85,2.393,2.393,0,0,0-.08,1.685,18.536,18.536,0,0,0,6.5,10.51,35.675,35.675,0,0,0,5.5,3.4q3.266,1.749,6.544,3.474c4.349,2.3,8.767,4.62,13.575,5.659a54.118,54.118,0,0,0,9.974.892l9.787.268c2.929.08,5.859.16,8.789.147a18.035,18.035,0,0,0,6.548-.894c3.552-1.4,6.36-4.911,10.177-4.929" transform="translate(503.915 -6535.486)" fill="#077773"/>
            <path id="Trazado_55009" data-name="Trazado 55009" d="M-531.282,6456.226c1.522.151,2.83-.964,4.171-1.7s3.391-.91,4.066.462a2.184,2.184,0,0,0,.331.613c.352.356.946.211,1.419.047,1.233-.428,2.708-.79,3.756-.011a2.082,2.082,0,0,1,.3,2.957,1.948,1.948,0,0,1-2.911-.2,10.174,10.174,0,0,1-1.77,4.158,3.482,3.482,0,0,1-4.066,1.122c-.34-1.581,2.472-2.433,2.27-4.037-.147-1.17-1.9-1.442-2.826-.715a6.884,6.884,0,0,0-1.721,3.042c-.446,1.092-1.214,2.243-2.386,2.376a5.305,5.305,0,0,0-1.485.116c-.908.384-.891,1.675-.615,2.621s.621,2.083-.032,2.821c-.73.825-2.064.455-3.146.664a2.875,2.875,0,0,0-2.237,3.009,2.89,2.89,0,0,1,.029,1.435c-.359.831-1.609.754-2.265,1.378-.994.945-.136,2.915-1.159,3.828a3.113,3.113,0,0,1-1.322.537,7.65,7.65,0,0,0-5.492,7.25c.015,1.424.438,2.855.167,4.254s-1.683,2.748-3,2.219c-1.193-.477-1.427-2.01-1.812-3.235s-1.759-2.508-2.779-1.728c-.326.25-.518.668-.894.833-.8.35-1.488-.665-1.779-1.489l-1.406,1.825c-.866-.254-1.172-1.612-2.075-1.613-1.124,0-.959,1.718-1.263,2.8-.4,1.4-2.1,2-3.559,1.909s-2.866-.642-4.323-.6-3.086,1-3.092,2.456c0,.663.328,1.358.053,1.961-.344.754-1.436.9-1.829,1.633-.324.6-.051,1.335-.082,2.016-.088,1.9-2.526,3.414-1.871,5.2a3.4,3.4,0,0,0,1.169,1.358l3.124,2.533c.793.643,2.32,1.068,2.533.069.086-.4-.157-.841.015-1.212.4-.855,1.636.149,2.579.149,1.066,0,1.532-1.38,1.432-2.441s-.427-2.243.189-3.114c1.507-2.129,5.721.851,7.261-1.255.93.451.59,1.914-.156,2.629s-1.792,1.232-2.1,2.219c-.347,1.108.406,2.236.569,3.385a3.467,3.467,0,0,1-2.31,3.67c.962,1.292,2.938,1.229,4.45.673s2.949-1.483,4.56-1.506a2.043,2.043,0,0,1,1.245.322,2.023,2.023,0,0,1,.7,1.316c.306,1.766-.582,3.607-.139,5.344.582,2.281,3.346,4.062,2.67,6.317-1.344.927-3.214.429-4.6-.428s-2.6-2.047-4.153-2.563a9.216,9.216,0,0,1-2.551-.888c-1.135-.808-1.376-2.372-2.13-3.544a4.6,4.6,0,0,0-5.756-1.555,3.292,3.292,0,0,1-1.444.562,3.949,3.949,0,0,1-1.43-.524c-1.894-.8-3.978.423-6.013.705a6.812,6.812,0,0,1-7.326-5.111,5.2,5.2,0,0,0-.6-1.965c-.4-.56-1.085-.88-1.408-1.485a3.05,3.05,0,0,1-.2-1.648q.375-5.7.75-11.4a15.1,15.1,0,0,1,.978-5.244c1.4-3.128,4.724-4.91,7.946-6.085s6.675-2.031,9.326-4.208c2.151-1.767,3.822-4.416,6.541-5.014,1.912-.42,3.878.308,5.835.339s4.3-1.2,4.148-3.149a9.4,9.4,0,0,0-.915-2.419,4.433,4.433,0,0,1,.583-4.1,12.034,12.034,0,0,0,7.352-4.445,4.278,4.278,0,0,1,1.009-1.077c1.893-1.2,4.485,1.582,6.456.516a4.549,4.549,0,0,0,1.352-1.455,11.307,11.307,0,0,1,6.321-4.257" transform="translate(596.365 -6432.259)" fill="#077773"/>
            <path id="Trazado_55010" data-name="Trazado 55010" d="M-220.162,6483.128c.065,1.993,1.719,4.045.742,5.783a12.6,12.6,0,0,0-.822,1.238c-.44,1.06.337,2.244,1.244,2.948a10.287,10.287,0,0,1,2.635,2.184.9.9,0,0,0-1.042.913.894.894,0,0,0,1.2.694l-2.394,1.3a6.3,6.3,0,0,0,2.717.2,6.393,6.393,0,0,1-.159,2.458c-.092.823.159,1.839.952,2.078a15.964,15.964,0,0,0-2.7,1.177,2.406,2.406,0,0,0-.941.772c-.6.97.282,2.205,1.255,2.8s2.171,1.018,2.672,2.042c.73,1.491-.463,3.349.114,4.906.633,1.706,3.049,2.2,3.7,3.9.523,1.378-.352,2.916-.14,4.374.349,2.4,3.2,3.357,5.154,4.789a16.778,16.778,0,0,1,1.975,1.794l4.31,4.35a4.037,4.037,0,0,0,1.3.993,2.718,2.718,0,0,0,2.612-.534,7.61,7.61,0,0,0,1.706-2.19,8.949,8.949,0,0,0,1.239-2.814,3.217,3.217,0,0,0-.728-2.878c-1.523-1.5-4.178-.43-6.169-1.219-2.024-.8-2.787-3.256-3.013-5.421s-.237-4.533-1.6-6.229c.539,2.146.653,4.41,1.5,6.455s2.73,3.908,4.938,3.776a1,1,0,0,0,.568-.17,1.094,1.094,0,0,0,.315-.58,11.623,11.623,0,0,0-3.209-11.511c-1.658-1.53-3.743-2.543-5.376-4.1-2.94-2.8-4.042-6.955-5.512-10.743s-3.846-7.744-7.775-8.776" transform="translate(371.033 -6450.145)" fill="#077773"/>
            <path id="Trazado_55011" data-name="Trazado 55011" d="M-209.389,6516.337a6.543,6.543,0,0,1-3.89-1.893,11.218,11.218,0,0,1-2.187-4.355,2.9,2.9,0,0,1-.206-1.627,2.893,2.893,0,0,1,.69-1.094,3.451,3.451,0,0,1,2.34-1.518,2.862,2.862,0,0,1,1.634.653,8.773,8.773,0,0,1,3.3,4.765,3.484,3.484,0,0,1,.152,1.235,2.453,2.453,0,0,1-1.635,2.006,3.051,3.051,0,0,1-2.616-.364" transform="translate(368.183 -6464.082)" fill="#077773"/>
            <path id="Trazado_55012" data-name="Trazado 55012" d="M-329.485,6695.118l-3.306,6.456a3.07,3.07,0,0,0-.488,1.775c.243,1.688,3.037,2.242,2.956,3.945l-4.715.76a1.377,1.377,0,0,0-.846.345,1.256,1.256,0,0,0-.118,1.148c.59,2.272,2.443,4.3,2.1,6.626-.557,3.773-6.318,4.968-6.911,8.736a5.357,5.357,0,0,1-.432,2.176c-1.019,1.559-3.53.269-5.281.9-1.257.454-1.893,1.82-2.4,3.056l-2.32,5.657a7.88,7.88,0,0,1-.832,1.649,9.807,9.807,0,0,1-1.868,1.743,20.121,20.121,0,0,0-4.325,4.9,9.2,9.2,0,0,1-.32-3.759c-1.807.821-.688,3.748-1.736,5.432a4.1,4.1,0,0,1-1.889,1.41,20.186,20.186,0,0,1-7.245,1.768c1.434,1.025,1.261,3.426-.039,4.616a5.393,5.393,0,0,1-4.992.883,2.636,2.636,0,0,0-1.616-.129c-1.378.544-.527,2.609-.689,4.083-.275,2.491-3.78,3.282-4.77,5.585-.362.843-.345,1.812-.711,2.654s-1.425,1.532-2.182,1.014a1.879,1.879,0,0,1-.643-1.112c-.787-2.9.009-5.975.8-8.878l2.9-10.63,2.782-10.18a30.787,30.787,0,0,1,3.2-8.386c1.752-2.794,4.344-4.942,6.889-7.038l6.472-5.328a15.38,15.38,0,0,1,4.091-2.692,13.315,13.315,0,0,1,4.987-.654c6.592.092,13.517,1.452,19.554-1.2" transform="translate(472.267 -6580.165)" fill="#077773"/>
          </g>
          <path id="Trazado_55013" data-name="Trazado 55013" d="M-633.828,6539.769a99.988,99.988,0,0,1,54.156-130.624,99.6,99.6,0,0,1,70.959-2.085,99.735,99.735,0,0,0-81.956-2.474,99.989,99.989,0,0,0-54.156,130.624,99.736,99.736,0,0,0,59.664,56.241A99.605,99.605,0,0,1-633.828,6539.769Z" transform="translate(652.451 -6396.963)" fill="#fff" opacity="0.21" style="mix-blend-mode: overlay;isolation: isolate"/>
          <path id="Trazado_55014" data-name="Trazado 55014" d="M-369.656,6488.12a99.984,99.984,0,0,1-54.16,130.618,99.693,99.693,0,0,1-81.262-2.139c116.831-9.709,129.376-141.583,100.964-171.741A99.4,99.4,0,0,1-369.656,6488.12Z" transform="translate(562.063 -6426.338)" fill="#c7dee0" opacity="0.6" style="mix-blend-mode: multiply;isolation: isolate"/>
          <path id="Trazado_55015" data-name="Trazado 55015" d="M-419.644,6637.041a100.013,100.013,0,0,1-61.517,99.566,99.69,99.69,0,0,1-81.267-2.14,99.6,99.6,0,0,1-36.152-29.147C-557.655,6715.944-476.181,6723.1-419.644,6637.041Z" transform="translate(619.41 -6544.209)" fill="#c7dee0" opacity="0.6" style="mix-blend-mode: multiply;isolation: isolate"/>
          <path id="Trazado_55016" data-name="Trazado 55016" d="M-475.753,6579.583" transform="translate(544.077 -6508.969)" fill="#077773"/>
        </g>
        <g id="Grupo_22366" data-name="Grupo 22366">
          <path id="Trazado_55017" data-name="Trazado 55017" d="M-583.425,6431.94s-8.363-20.99-2.647-34.858c.291-20.346,14.08-19.538,17.688-30.235,0,0,8.865,27.853-14.08,31.9,0,0-8.285,7.717,1,33.044Z" transform="translate(617.748 -6366.847)" fill="#16b596"/>
          <path id="Trazado_55018" data-name="Trazado 55018" d="M-635.1,6437.56s-.525-23.694-29.722-20.047c8.131,6.934,7.341,20.489,26.805,14.413a62.437,62.437,0,0,1,3.378,14.6Z" transform="translate(664.82 -6397.688)" fill="#149980"/>
        </g>
        <path id="Trazado_55019" data-name="Trazado 55019" d="M-182.969,6737.605s11.934-14.179,17.5-17.91c9.588-23.891,32.713-11.605,43.9-13.888a42.832,42.832,0,0,1-40.748,16.041s-10.746,6.619-23.282,23.134Z" transform="translate(370.895 -6574.022)" fill="#16b596"/>
        <path id="Trazado_55020" data-name="Trazado 55020" d="M-231.074,6744.153s21.117-17.256,21.978-38c0,0-12.522-8.945-12.072-32.71,0,0,24.72,12.072,17.32,34.614,0,0-9.178,23.465-27,38.449Z" transform="translate(398.792 -6554.888)" fill="#138972"/>
      </g>
      <g id="Grupo_22390" data-name="Grupo 22390" transform="translate(-1135.544 6284.137)">
        <g id="Grupo_22378" data-name="Grupo 22378" transform="translate(199.231 143.64)">
          <g id="Grupo_22369" data-name="Grupo 22369" transform="translate(47.218 85.135)">
            <path id="Trazado_55021" data-name="Trazado 55021" d="M-275.388,7048.531H-285.7c-5.055,0-15.524-5.435-8.187-18.856l20.938-12.974,7.874,12.438Z" transform="translate(296.417 -7016.7)" fill="#127266"/>
            <g id="Grupo_22368" data-name="Grupo 22368" transform="translate(13.433 0.447)">
              <path id="Trazado_55022" data-name="Trazado 55022" d="M-261.53,7040.568s-.225-6.784,12.839-19.042l27.381-3.668,7.459,4.531s1.041,10.77-10.412,12.47S-261.53,7040.568-261.53,7040.568Z" transform="translate(261.587 -7017.857)" fill="#16998f"/>
              <path id="Trazado_55023" data-name="Trazado 55023" d="M-211.558,7059.062V7072.3s-37.738,5.045-46.7-2.147c-7.582-6.085-2.69-15.077,16.1-14.876S-211.558,7059.062-211.558,7059.062Z" transform="translate(261.677 -7040.808)" fill="#1baa9c"/>
              <path id="Trazado_55024" data-name="Trazado 55024" d="M-106.414,7076.331c-.558,3.387-3.944,3.844-7.423,3.544-1.36-.114-2.742-.344-3.966-.565a28.538,28.538,0,0,0-7.7-.358v-10.315c3.672.279,8.246-.494,11.911-.565a16.871,16.871,0,0,1,2.7.122C-107.008,7068.729-105.634,7071.614-106.414,7076.331Z" transform="translate(178.155 -7048.65)" fill="#0f3384"/>
              <path id="Trazado_55025" data-name="Trazado 55025" d="M-87.918,7076.331c-.558,3.387-3.944,3.844-7.423,3.544l1.94-1.518c-2.448-4.352,0-9,0-9l-1.689-1.281a16.871,16.871,0,0,1,2.7.122C-88.512,7068.729-87.138,7071.614-87.918,7076.331Z" transform="translate(159.659 -7048.65)" fill="#f9ded7"/>
              <rect id="Rectángulo_8126" data-name="Rectángulo 8126" width="2.538" height="9.216" transform="translate(50.119 20.446)" fill="#feb19e"/>
            </g>
          </g>
          <g id="Grupo_22370" data-name="Grupo 22370" transform="translate(20.962 40.615)">
            <path id="Trazado_55026" data-name="Trazado 55026" d="M-355.163,7027.423l-1.43,1.849s-6.085,5.443-7.576,8.925,8.53-.514,8.53-.514,3.929-2.119,4.116-4.161l2.088-2.368Z" transform="translate(364.32 -6978.757)" fill="#f49987"/>
            <path id="Trazado_55027" data-name="Trazado 55027" d="M-307.443,6901.626s-4.128-1.265-7.88,7.688c-2.828,6.748-8.411,17.055-8.411,17.055l-18.135,23.026s2.506,5.044,6.443,5.726c0,0,20.192-18.134,21.847-21.594s6.136-10.379,6.136-10.379Z" transform="translate(350.55 -6901.564)" fill="#4463aa"/>
          </g>
          <g id="Grupo_22373" data-name="Grupo 22373" transform="translate(0 56.068)">
            <g id="Grupo_22371" data-name="Grupo 22371" transform="translate(9.563)">
              <path id="Trazado_55028" data-name="Trazado 55028" d="M-383.619,6951.745a6.281,6.281,0,0,0-1.3-6.469c-2.774-3.069-8.882-3.749-8.882-3.749S-390.485,6950.577-383.619,6951.745Z" transform="translate(393.8 -6941.528)" fill="#16b596"/>
              <path id="Trazado_55029" data-name="Trazado 55029" d="M-352.074,6969.292s-1.3-5.161,2.994-7.786a64.562,64.562,0,0,0,5.488-3.58S-342.481,6967.771-352.074,6969.292Z" transform="translate(368.322 -6951.585)" fill="#16b596"/>
              <path id="Trazado_55030" data-name="Trazado 55030" d="M-381.226,7031.947a4.293,4.293,0,0,0-3.7-4.37c-3.937-.835-6.8.417-8.172-.537C-393.1,7027.04-388.921,7035.958-381.226,7031.947Z" transform="translate(393.369 -6993.974)" fill="#16b596"/>
              <path id="Trazado_55031" data-name="Trazado 55031" d="M-363.629,6957.816a.538.538,0,0,0-.755-.081c-4.151,3.342-6.061,8.583-6.933,12.39-.073-.693-.153-1.371-.245-2.025-1.689-12.018-7.687-16.518-7.942-16.7a.535.535,0,0,0-.75.117.538.538,0,0,0,.117.75c.059.043,5.886,4.413,7.512,15.985a115.884,115.884,0,0,1,.687,17.415,14.255,14.255,0,0,0-4.258-2.688.537.537,0,0,0-.7.3.538.538,0,0,0,.3.7c1.059.42,3.816,1.807,4.609,3.4-.2,6.492-.635,11.561-.644,11.658a.538.538,0,0,0,.487.583l.048,0a.537.537,0,0,0,.534-.49c.008-.1.431-4.976.634-11.308a.529.529,0,0,0,.086-.482c-.018-.053-.046-.1-.067-.157.113-3.845.138-8.165-.058-12.258v0c.006-.109.626-11.007,7.252-16.342A.538.538,0,0,0-363.629,6957.816Z" transform="translate(385.555 -6947.517)" fill="#07514c"/>
            </g>
            <g id="Grupo_22372" data-name="Grupo 22372" transform="translate(0 41.984)">
              <path id="Trazado_55032" data-name="Trazado 55032" d="M-368.963,7070.783h-49.514s-.716-5.533,3.107-5.533c0,0,.358-3.579,2.62-2.863,0,0,1.074-7.874,7.28-6.686,0,0,2.148-4.976,6.085-2.663a12.628,12.628,0,0,1,6.242-2.85c3.6-.472,8.218.909,12.369,8.261,0,0,3.1-1.589,3.343,2.964,0,0,3.221-.58,4.3,3.951C-373.137,7065.364-367.976,7066.66-368.963,7070.783Z" transform="translate(418.53 -7050.105)" fill="#332012"/>
              <path id="Trazado_55033" data-name="Trazado 55033" d="M-390.882,7066.312c-1.6,4.789-15-2.162-19.757,4.5h-7.838s-.716-5.534,3.107-5.534c0,0,.358-3.579,2.62-2.864,0,0,1.074-7.873,7.28-6.686,0,0,2.148-4.975,6.085-2.663a12.629,12.629,0,0,1,6.242-2.849c.665.73,4.875,5.927-5.169,10.093C-398.313,7060.306-389.186,7061.215-390.882,7066.312Z" transform="translate(418.53 -7050.171)" fill="#4c321c"/>
              <ellipse id="Elipse_1352" data-name="Elipse 1352" cx="1.27" cy="0.537" rx="1.27" ry="0.537" transform="translate(11.21 12.405)" fill="#332012"/>
              <path id="Trazado_55034" data-name="Trazado 55034" d="M-362.516,7087c0,.526-1.042.954-2.327.954s-2.326-.428-2.326-.954,1.042-.955,2.326-.955S-362.516,7086.472-362.516,7087Z" transform="translate(387.029 -7072.147)" fill="#332012"/>
              <path id="Trazado_55035" data-name="Trazado 55035" d="M-374.105,7068.989c0,.379-.761.686-1.7.686s-1.7-.307-1.7-.686.761-.686,1.7-.686S-374.105,7068.61-374.105,7068.989Z" transform="translate(393.368 -7061.267)" fill="#332012"/>
              <path id="Trazado_55036" data-name="Trazado 55036" d="M-320.739,7087c0,.526-1.242.954-2.774.954s-2.774-.428-2.774-.954,1.242-.955,2.774-.955S-320.739,7086.472-320.739,7087Z" transform="translate(361.955 -7072.147)" fill="#4c321c"/>
            </g>
          </g>
          <g id="Grupo_22376" data-name="Grupo 22376" transform="translate(21.947 33.947)">
            <g id="Grupo_22374" data-name="Grupo 22374" transform="translate(35.986)">
              <path id="Trazado_55037" data-name="Trazado 55037" d="M-218.253,6940.485a21.348,21.348,0,0,0-8.647-1.575c-.007.007-.022,0-.029,0a40.2,40.2,0,0,0-14.045,2.649c-14.366,5.254-18.561-2.506-18.561-2.506s2.985-3.457,0-12.527q-.2-.6-.408-1.138c-.208-.53-.422-1.017-.644-1.467-3.006-6.085-7.151-5.2-8.017-14.332-.544-5.762,1.181-11.553,2.8-15.533.007-.028.022-.058.029-.086l.043-.107a41.317,41.317,0,0,1,2.384-4.918c7.989-8.59,17.488-3.729,22.377,2.549,7.158,9.191,9.356,28,9.356,28C-220.644,6927.486-218.253,6940.485-218.253,6940.485Z" transform="translate(268.707 -6884.319)" fill="#4463aa"/>
              <path id="Trazado_55038" data-name="Trazado 55038" d="M-214.05,6962.907a40.187,40.187,0,0,0-14.045,2.648c-14.366,5.254-18.561-2.505-18.561-2.505s2.985-3.457,0-12.527a20.038,20.038,0,0,0-1.052-2.6l16.221-24.475s9.621,4.117,0,29.349C-239,6972.485-228.653,6961.11-214.05,6962.907Z" transform="translate(255.828 -6908.314)" fill="#4463aa" opacity="0.35" style="mix-blend-mode: multiply;isolation: isolate"/>
              <path id="Trazado_55039" data-name="Trazado 55039" d="M-256.435,6928.136l-3.508,12.7c-.208-.53-.422-1.017-.644-1.468-3.006-6.085-7.151-5.2-8.017-14.331-.544-5.763,1.181-11.553,2.8-15.533-.487,1.339-3.135,9.313-.408,16.607C-263.236,6934.1-256.435,6928.136-256.435,6928.136Z" transform="translate(268.707 -6899.765)" fill="#4463aa" opacity="0.35" style="mix-blend-mode: multiply;isolation: isolate"/>
            </g>
            <g id="Grupo_22375" data-name="Grupo 22375" transform="translate(0 14.418)">
              <path id="Trazado_55040" data-name="Trazado 55040" d="M-345.158,7043.08l-4.3,2.685s-5.369,2.953-9.574,3.132-2.327,3.311-2.327,3.311h7.889c3.028,0,6.786,1.253,7.5-1.253l6.085-2.595Z" transform="translate(361.772 -6996.109)" fill="#feb19e"/>
              <path id="Trazado_55041" data-name="Trazado 55041" d="M-320.888,6967.771s0,3.818,5.965,7.517c0,0,23.742-10.5,29.23-18.135s17.418-25.53,10.737-33.524c-5.066-6.062-10.4,2.824-13.959,9.306-4,7.278-8.359,16.106-8.359,16.106Z" transform="translate(336.697 -6921.607)" fill="#6082c6"/>
            </g>
          </g>
          <g id="Grupo_22377" data-name="Grupo 22377" transform="translate(46.673)">
            <path id="Trazado_55042" data-name="Trazado 55042" d="M-268.527,6806.052s1.228-10.827,11.506-9.4c9.878,1.376,9.673,13.53,6.007,21.027,0,0,2.506-2.327,4.474,0s-3.221,11.812-9.753,5.547S-268.527,6806.052-268.527,6806.052Z" transform="translate(279.857 -6796.527)" fill="#0e2571"/>
            <path id="Trazado_55043" data-name="Trazado 55043" d="M-268.527,6815.944s8.777-5.006,10.237,5.1S-268.527,6815.944-268.527,6815.944Z" transform="translate(279.857 -6807.676)" fill="#6082c6"/>
            <path id="Trazado_55044" data-name="Trazado 55044" d="M-291.169,6840.855s-6.211-1.979-6.628-8.5c-.358-5.6,2.505-5.548,2.505-5.548s.882-9.664,10.731-8.947,16.328,12.041,10.668,23.464S-291.169,6840.855-291.169,6840.855Z" transform="translate(297.827 -6809.589)" fill="#0e2571"/>
            <path id="Trazado_55045" data-name="Trazado 55045" d="M-245.864,6878.065s-2.033,9.95-8.354,10.144a2.011,2.011,0,0,1-1.879-2,17.331,17.331,0,0,1,.049-2.285l-2.823-3.047,7.072-9.041c0,.007,0,.007.007.014A17.4,17.4,0,0,0-245.864,6878.065Z" transform="translate(273.934 -6842.712)" fill="#feb19e"/>
            <path id="Trazado_55046" data-name="Trazado 55046" d="M-256.1,6886.2a17.331,17.331,0,0,1,.049-2.285l-2.823-3.047,7.072-9.041c0,.007,0,.007.007.014A11.783,11.783,0,0,1-256.1,6886.2Z" transform="translate(273.934 -6842.712)" fill="#ff856a"/>
            <path id="Trazado_55047" data-name="Trazado 55047" d="M-288.26,6856.567s5.1,17.414,10.917,17.9c4.683.388,9.514-8.94,7.516-11.99,0,0,1.64-2.475-.089-4.325s-3.758-.238-1.909,2.983c0,0-3.758-.3-4.235-3.281C-276.061,6857.849-283.935,6863.1-288.26,6856.567Z" transform="translate(291.959 -6833.351)" fill="#feb19e"/>
          </g>
        </g>
        <g id="Grupo_22389" data-name="Grupo 22389" transform="translate(0 0)">
          <g id="Grupo_22379" data-name="Grupo 22379" transform="translate(17.058 49.521)">
            <path id="Trazado_55048" data-name="Trazado 55048" d="M-763.879,6574.955s7.709-.673,9.572,2.1-13.17,4.085-13.17,4.085Z" transform="translate(814.722 -6566.467)" fill="#f49987"/>
            <path id="Trazado_55049" data-name="Trazado 55049" d="M-874.507,6553.118l10.022,8.487,25.531-1.324,1.193,11.448s-22.907,3.572-28.633,3.635-23.265-8.049-23.265-8.049Z" transform="translate(889.659 -6553.118)" fill="#127266"/>
          </g>
          <g id="Grupo_22382" data-name="Grupo 22382" transform="translate(2.231 86.326)">
            <g id="Grupo_22380" data-name="Grupo 22380" transform="translate(20.374)">
              <path id="Trazado_55050" data-name="Trazado 55050" d="M-845.777,6852.711l-1.736,9.127s-4.528,0-5.3-5.787,2.625-7.814,2.625-7.814l4.056,2.386Z" transform="translate(861.585 -6770.928)" fill="#127266"/>
              <path id="Trazado_55051" data-name="Trazado 55051" d="M-861.24,6648.3s14.74,27.38,16.888,35.433-.366,17.506-12.577,46.35c0,0-9.614.029-11.045-5.98s-7.337-73.478-7.337-73.478Z" transform="translate(875.312 -6648.303)" fill="#6082c6"/>
            </g>
            <g id="Grupo_22381" data-name="Grupo 22381" transform="translate(0 1.968)">
              <path id="Trazado_55052" data-name="Trazado 55052" d="M-889.135,6899.147s-2.149,7.517-1.164,11.99a80.724,80.724,0,0,0,21.385,2.059s1.879-4.988-3.132-6.163-5.458-3.948-5.458-3.948l-.716-3.937Z" transform="translate(905.037 -6804.121)" fill="#14988e"/>
              <path id="Trazado_55053" data-name="Trazado 55053" d="M-927.97,6653.394s-.716,6.443,4.534,21.236,10.021,25.77,10.021,25.77v49.154s2.625,2.147,13.839,0c0,0,6.681-45.575,5.965-53.687s-5.488-42.472-5.488-42.472Z" transform="translate(928.003 -6653.394)" fill="#4463aa"/>
            </g>
          </g>
          <g id="Grupo_22383" data-name="Grupo 22383" transform="translate(20.761)">
            <path id="Trazado_55054" data-name="Trazado 55054" d="M-857.923,6445.415a3.773,3.773,0,0,0,4.5-3.833s5.906,1.163,5.1-6.979c0,0-2.818.895-4.765,0,0,0,1.722-.268,1.9-2.773,0,0-3.668,2.505-8.858-2.6s-14.406-6.8-16.822,2.237a7.74,7.74,0,0,0-2.237,9.485c2.638,5.966,1.367,7.8,1.367,7.8Z" transform="translate(879.96 -6425.049)" fill="#0e2571"/>
            <path id="Trazado_55055" data-name="Trazado 55055" d="M-867.236,6484.987l-5.247,5.161-.121.122s-9.034-7.695-7.244-9.485a47.344,47.344,0,0,0,4.374-6.013c.6-.923.995-1.561.995-1.561Z" transform="translate(880.084 -6454.588)" fill="#feb19e"/>
            <path id="Trazado_55056" data-name="Trazado 55056" d="M-860.725,6484.987l-5.247,5.161c-.072-.129-.143-.272-.208-.416,0,0-4.825-5.4-2.784-14.96.6-.923.995-1.561.995-1.561Z" transform="translate(873.572 -6454.588)" fill="#ff856a"/>
            <path id="Trazado_55057" data-name="Trazado 55057" d="M-849.647,6464.36s-6.063,14.648-11.453,14.674c-3.937.02-9.187-8.709-6.443-13.243,0,0-2.684-2.326-.119-4.115,2.254-1.572,3.34.417,2.148,2.982a2.869,2.869,0,0,0,3.52-2.8s6.323,4.354,12.109-.179a8.757,8.757,0,0,1-6.025,3.042A8.2,8.2,0,0,0-849.647,6464.36Z" transform="translate(873.146 -6447.171)" fill="#feb19e"/>
          </g>
          <g id="Grupo_22384" data-name="Grupo 22384" transform="translate(15.696 60.109)">
            <path id="Trazado_55058" data-name="Trazado 55058" d="M-849.585,6580.5h6.989l-43.6,204.041h-6.989Z" transform="translate(893.181 -6580.501)" fill="#c7dee0"/>
            <path id="Trazado_55059" data-name="Trazado 55059" d="M-709.5,6580.5h-6.989l43.6,204.041h6.989Z" transform="translate(784.814 -6580.501)" fill="#c7dee0"/>
            <rect id="Rectángulo_8127" data-name="Rectángulo 8127" width="41.399" height="9.216" rx="2.521" transform="translate(38.704)" fill="#98aeaf"/>
            <path id="Trazado_55060" data-name="Trazado 55060" d="M-761.77,6821.1h-60.308a2.863,2.863,0,0,1-2.863-2.863h0a2.863,2.863,0,0,1,2.863-2.863h60.308a2.863,2.863,0,0,1,2.863,2.863h0A2.863,2.863,0,0,1-761.77,6821.1Z" transform="translate(851.328 -6724.557)" fill="#98aeaf"/>
            <path id="Trazado_55061" data-name="Trazado 55061" d="M-818.3,6820.512a1.432,1.432,0,0,1-1.432,1.432,1.432,1.432,0,0,1-1.432-1.432,1.432,1.432,0,0,1,1.432-1.432A1.432,1.432,0,0,1-818.3,6820.512Z" transform="translate(849.011 -6726.828)" fill="#c7dee0"/>
            <path id="Trazado_55062" data-name="Trazado 55062" d="M-662.563,6820.512a1.432,1.432,0,0,1-1.431,1.432,1.432,1.432,0,0,1-1.431-1.432,1.432,1.432,0,0,1,1.431-1.432A1.432,1.432,0,0,1-662.563,6820.512Z" transform="translate(753.493 -6726.828)" fill="#c7dee0"/>
          </g>
          <g id="Grupo_22388" data-name="Grupo 22388" transform="translate(0 24.225)">
            <path id="Trazado_55063" data-name="Trazado 55063" d="M-895.363,6552.362c-21.947,13.723-38.411,3.343-38.411,3.343s.594-14.911,6.084-37.7,11.926-27.38,11.926-27.38-.236-3.042,1.675-2.921,9.9,12.527,9.9,12.527l3.766,13.888,1.961,3.412c-.251,4.353-.215,12.179-.014,15.765C-897.825,6545.125-895.363,6552.362-895.363,6552.362Z" transform="translate(933.774 -6487.698)" fill="url(#linear-gradient)"/>
            <path id="Trazado_55064" data-name="Trazado 55064" d="M-873.58,6563.943c-21.962-5.3-19.521-26.271-19.521-26.271l17.574,7.094,1.961,1.98C-873.817,6551.1-873.781,6560.356-873.58,6563.943Z" transform="translate(908.878 -6518.348)" fill="#107a7a" opacity="0.17" style="mix-blend-mode: multiply;isolation: isolate"/>
            <g id="Grupo_22387" data-name="Grupo 22387" transform="translate(15.762 2.248)">
              <g id="Grupo_22386" data-name="Grupo 22386" transform="translate(62.309 4.178)">
                <g id="Grupo_22385" data-name="Grupo 22385" transform="translate(0 12.282)">
                  <path id="Trazado_55065" data-name="Trazado 55065" d="M-725.53,6537.9s-2.986,3.581-6.246,19.151a4.412,4.412,0,0,0,2.682,4.991c4.957,2,14.747,5.086,25.1,3.6a4.4,4.4,0,0,0,3.741-3.832c.592-5.016,1.517-15.3-.066-20.358Z" transform="translate(731.87 -6537.197)" fill="#a8d0e2"/>
                  <path id="Trazado_55066" data-name="Trazado 55066" d="M-690.27,6540.333c-.134.955-5.886.935-12.847-.044s-12.495-2.549-12.36-3.5,5.887-.936,12.847.044S-690.136,6539.378-690.27,6540.333Z" transform="translate(721.818 -6536.082)" fill="#a8d0e2"/>
                  <path id="Trazado_55067" data-name="Trazado 55067" d="M-688.071,6539.135c-.07.5-4.322.313-9.5-.416s-9.312-1.723-9.242-2.222,4.322-.313,9.5.416S-688,6538.636-688.071,6539.135Z" transform="translate(716.5 -6536.165)" fill="#2356af"/>
                  <path id="Trazado_55068" data-name="Trazado 55068" d="M-630.173,6555.713a1.035,1.035,0,0,1-.69.64c-1.725.324-3.494-3.836-3.494-3.836l-21.574,6.983s-2.779-3.142-.819-9.016l23.133-2.593c.145-.013.3-.02.44-.02a3.547,3.547,0,0,1,3.48,3.2A10.142,10.142,0,0,1-630.173,6555.713Z" transform="translate(686.226 -6543.312)" fill="#a8d0e2"/>
                  <path id="Trazado_55069" data-name="Trazado 55069" d="M-591.937,6555.713a7.556,7.556,0,0,1-3-7.842,3.548,3.548,0,0,1,3.48,3.2A10.144,10.144,0,0,1-591.937,6555.713Z" transform="translate(647.99 -6543.312)" fill="#a8d0e2"/>
                </g>
                <path id="Trazado_55070" data-name="Trazado 55070" d="M-689.034,6520.774a.492.492,0,0,1-.091-.014.5.5,0,0,1-.369-.6c.015-.063,1.474-6.336-1.332-10.689a9.142,9.142,0,0,0-6.27-3.945,9.1,9.1,0,0,0-7.072,1.318c-4.793,3.253-6.246,10.64-6.261,10.714a.5.5,0,0,1-.584.4.5.5,0,0,1-.4-.585c.061-.319,1.548-7.87,6.681-11.354a10.062,10.062,0,0,1,7.823-1.473,10.1,10.1,0,0,1,6.923,4.39c3.037,4.716,1.526,11.187,1.46,11.46A.5.5,0,0,1-689.034,6520.774Z" transform="translate(719.327 -6504.317)" fill="#a8d0e2"/>
                <path id="Trazado_55071" data-name="Trazado 55071" d="M-574.772,6574.026a2.286,2.286,0,0,1,1.363-.1,3.468,3.468,0,0,1,1.215.484,3.281,3.281,0,0,1,1.51,2.1,4.831,4.831,0,0,1-1.232-.406,7.259,7.259,0,0,1-1.008-.548A9.628,9.628,0,0,1-574.772,6574.026Z" transform="translate(635.517 -6546.975)" fill="#fff"/>
                <path id="Trazado_55072" data-name="Trazado 55072" d="M-560.436,6569.257a3.279,3.279,0,0,1,1.56.09,4.485,4.485,0,0,1,1.383.647,4.092,4.092,0,0,1,1.092,1.1,2.849,2.849,0,0,1,.529,1.491,13.7,13.7,0,0,1-1.278-.736c-.4-.231-.751-.482-1.121-.732A11.913,11.913,0,0,1-560.436,6569.257Z" transform="translate(626.725 -6544.112)" fill="#fff"/>
                <path id="Trazado_55073" data-name="Trazado 55073" d="M-572.129,6553a2.581,2.581,0,0,1,1.419-.307,3.457,3.457,0,0,1,1.384.347,2.906,2.906,0,0,1,1.719,2.231c-.5-.163-.866-.353-1.244-.512s-.714-.327-1.066-.492A15.065,15.065,0,0,1-572.129,6553Z" transform="translate(633.896 -6533.984)" fill="#fff"/>
                <path id="Trazado_55074" data-name="Trazado 55074" d="M-527.78,6587.659" transform="translate(606.696 -6555.433)" fill="#fff"/>
                <path id="Trazado_55075" data-name="Trazado 55075" d="M-537.477,6583.19a4.971,4.971,0,0,1,1.647.8,7.17,7.17,0,0,1,1.326,1.186,6.887,6.887,0,0,1,1.01,1.471,4.807,4.807,0,0,1,.559,1.746,9.069,9.069,0,0,1-1.407-1.106,15.287,15.287,0,0,1-1.184-1.209,14.517,14.517,0,0,1-1.05-1.335A8.722,8.722,0,0,1-537.477,6583.19Z" transform="translate(612.643 -6552.693)" fill="#fff"/>
                <path id="Trazado_55076" data-name="Trazado 55076" d="M-535.874,6566.948a3.544,3.544,0,0,1,1.709.21,4.8,4.8,0,0,1,1.483.84,4.346,4.346,0,0,1,1.1,1.326,3.169,3.169,0,0,1,.426,1.684c-.5-.355-.86-.7-1.257-1.021l-1.138-.939A25.4,25.4,0,0,1-535.874,6566.948Z" transform="translate(611.66 -6542.711)" fill="#fff"/>
                <path id="Trazado_55077" data-name="Trazado 55077" d="M-548.633,6595.388a4.66,4.66,0,0,1,1.786,1.213,6.588,6.588,0,0,1,1.236,1.765,6.484,6.484,0,0,1,.626,2.063,5.093,5.093,0,0,1-.128,2.152c-.366-.648-.612-1.265-.9-1.863l-.827-1.755C-547.39,6597.8-548,6596.691-548.633,6595.388Z" transform="translate(619.486 -6560.173)" fill="#fff"/>
                <path id="Trazado_55078" data-name="Trazado 55078" d="M-518.382,6604.335a2.9,2.9,0,0,1,1.437.625,4.065,4.065,0,0,1,1.031,1.138,3.7,3.7,0,0,1,.485,2.993,9.218,9.218,0,0,1-.915-1.164c-.261-.375-.5-.739-.729-1.113A18.529,18.529,0,0,1-518.382,6604.335Z" transform="translate(600.932 -6565.661)" fill="#fff"/>
              </g>
              <path id="Trazado_55079" data-name="Trazado 55079" d="M-719.6,6498.209l4.5-3.063s1.606-2.676,6.293-1.179,5.558,2.427,4.934,3.957c0,0,3.032,2.051,2.521,3.486s-2.373,1.823-2.476,2.739a2.772,2.772,0,0,1-2.183,2.32c-1.314.254-1.75,1.314-3.407.9s-4.606-3.01-4.606-3.01l-3.356.958Z" transform="translate(786.653 -6493.512)" fill="#feb19e"/>
              <path id="Trazado_55080" data-name="Trazado 55080" d="M-891.518,6518.53c2.239,3.763,7.775,6.017,12.126,6.511,7.438.844,20.512,2.563,29.839-.55,12.956-4.323,27.614-14.52,27.614-14.52s.457-5.173-4.664-9.928c0,0-21.894,10.347-25.121,10.353s-22.555-3.181-29.178-5.328C-886.342,6503.3-896.914,6509.46-891.518,6518.53Z" transform="translate(893.01 -6497.518)" fill="url(#linear-gradient-2)"/>
            </g>
          </g>
        </g>
      </g>
    </g>
  </g>
</svg>
